<svg id="iapps_logo" xmlns="http://www.w3.org/2000/svg" xmlns:xlink="http://www.w3.org/1999/xlink" width="195.826" height="80" viewBox="0 0 195.826 80">
  <defs>
    <style>
      .cls-1, .cls-6 {
        fill: none;
      }

      .cls-2 {
        clip-path: url(#clip-path);
      }

      .cls-3 {
        fill: #265bfe;
      }

      .cls-4 {
        fill: #002087;
      }

      .cls-5 {
        fill: #080057;
      }

      .cls-6 {
        stroke: #080057;
        stroke-miterlimit: 10;
      }
    </style>
    <clipPath id="clip-path">
      <rect id="사각형_17847" data-name="사각형 17847" class="cls-1" width="195.826" height="80"/>
    </clipPath>
  </defs>
  <g id="그룹_16480" data-name="그룹 16480" class="cls-2">
    <path id="패스_26455" data-name="패스 26455" class="cls-3" d="M31.116,11.073A11.073,11.073,0,1,1,20.043,0,11.073,11.073,0,0,1,31.116,11.073" transform="translate(-1.563)"/>
    <path id="패스_26456" data-name="패스 26456" class="cls-4" d="M33.508,57.106l-7.337-5.95,2.5-2.874A11.64,11.64,0,0,0,12.236,31.868l0-.021a5.325,5.325,0,0,0-.888.879c-.088.094-.182.179-.268.277l-.285.329c-1.6,1.77-3.961,4.489-3.974,4.5s-3.25,3.79-3.258,3.8a11.26,11.26,0,0,0-3.493,9.2A11.288,11.288,0,0,0,4.066,57.8l6.468,5.171-.077.068L8.078,65.773A11.643,11.643,0,0,0,24.085,82.547c0,.012,0,.023,0,.035l.159-.166a11.607,11.607,0,0,0,1.423-1.367l2.019-2.324,6.75-7.539s6.257-6.607-.923-14.081" transform="translate(0 -5.054)"/>
    <path id="패스_26457" data-name="패스 26457" class="cls-3" d="M12.24,32.223c-.076-.162-5.4,5.968-5.415,5.99s-3.25,3.79-3.258,3.8a11.26,11.26,0,0,0-3.493,9.2,11.288,11.288,0,0,0,3.992,6.966L17.879,69.215s7.46,7.169,6.2,13.743l2.488-2.614,7.863-8.781s6.257-6.607-.923-14.081L18.192,45.061a8.133,8.133,0,0,1-.75-.691c-.529-.551-1.356-1.431-1.567-1.648-2.1-2.7-4.437-6.763-3.636-10.5" transform="translate(0 -5.615)"/>
    <path id="패스_26458" data-name="패스 26458" class="cls-5" d="M71.373,24.626h.055a2.66,2.66,0,0,1,0,5.32h-.055a2.66,2.66,0,0,1,0-5.32m-2.66,12.9h5.376V64.4H68.713Z" transform="translate(-11.975 -4.292)"/>
    <path id="패스_26459" data-name="패스 26459" class="cls-6" d="M71.373,24.626h.055a2.66,2.66,0,0,1,0,5.32h-.055a2.66,2.66,0,0,1,0-5.32Zm-2.66,12.9h5.376V64.4H68.713Z" transform="translate(-11.975 -4.292)"/>
    <rect id="사각형_17845" data-name="사각형 17845" class="cls-5" width="15.377" height="4.731" transform="translate(66.21 38.929)"/>
    <rect id="사각형_17846" data-name="사각형 17846" class="cls-6" width="15.377" height="4.731" transform="translate(66.21 38.929)"/>
    <path id="패스_26460" data-name="패스 26460" class="cls-5" d="M116.646,39.6a15.828,15.828,0,0,1,5.133.833,14.654,14.654,0,0,1,4.461,2.446,11.017,11.017,0,0,1,3.2,4.38,15.949,15.949,0,0,1,1.182,6.314V67.005h-5.373v-3.44a3.429,3.429,0,0,1-.405.457q-.294.3-1.1.968a11.3,11.3,0,0,1-1.774,1.21,11.92,11.92,0,0,1-2.446.968,10.846,10.846,0,0,1-3.035.43h-.055a13.156,13.156,0,0,1-10.078-4.111,14.077,14.077,0,0,1-3.84-9.971,15.049,15.049,0,0,1,.86-5.025A14.462,14.462,0,0,1,105.9,44.03a11.71,11.71,0,0,1,4.434-3.224,15.326,15.326,0,0,1,6.207-1.211Zm0,4.838a8.014,8.014,0,0,0-6.18,2.633,9.949,9.949,0,0,0,0,13.006,8.012,8.012,0,0,0,6.18,2.633,8.356,8.356,0,0,0,6.288-2.633A9,9,0,0,0,125.46,53.6a9.1,9.1,0,0,0-2.526-6.5,8.319,8.319,0,0,0-6.288-2.66" transform="translate(-17.865 -6.9)"/>
    <path id="패스_26461" data-name="패스 26461" class="cls-6" d="M116.646,39.6a15.828,15.828,0,0,1,5.133.833,14.654,14.654,0,0,1,4.461,2.446,11.017,11.017,0,0,1,3.2,4.38,15.949,15.949,0,0,1,1.182,6.314V67.005h-5.373v-3.44a3.429,3.429,0,0,1-.405.457q-.294.3-1.1.968a11.3,11.3,0,0,1-1.774,1.21,11.92,11.92,0,0,1-2.446.968,10.846,10.846,0,0,1-3.035.43h-.055a13.156,13.156,0,0,1-10.078-4.111,14.077,14.077,0,0,1-3.84-9.971,15.049,15.049,0,0,1,.86-5.025A14.462,14.462,0,0,1,105.9,44.03a11.71,11.71,0,0,1,4.434-3.224,15.326,15.326,0,0,1,6.207-1.211Zm0,4.838a8.014,8.014,0,0,0-6.18,2.633,9.949,9.949,0,0,0,0,13.006,8.012,8.012,0,0,0,6.18,2.633,8.356,8.356,0,0,0,6.288-2.633A9,9,0,0,0,125.46,53.6a9.1,9.1,0,0,0-2.526-6.5A8.319,8.319,0,0,0,116.646,44.433Z" transform="translate(-17.865 -6.9)"/>
    <path id="패스_26462" data-name="패스 26462" class="cls-5" d="M156.382,39.6a13.594,13.594,0,0,1,10.131,3.9,13.745,13.745,0,0,1,3.843,10.076,14.721,14.721,0,0,1-3.494,10,11.748,11.748,0,0,1-9.351,4.032q-6.287,0-9.3-3.333l-.429-.538V80.5h-5.376V53.569a15.62,15.62,0,0,1,1.21-6.314,11.331,11.331,0,0,1,3.252-4.408A14.326,14.326,0,0,1,151.33,40.4a15.907,15.907,0,0,1,5.052-.806m0,4.838a8.316,8.316,0,0,0-6.288,2.66,9.092,9.092,0,0,0-2.526,6.5,8.994,8.994,0,0,0,2.526,6.476,8.352,8.352,0,0,0,6.288,2.633,8.021,8.021,0,0,0,6.181-2.633,9.957,9.957,0,0,0,0-13.006,8.024,8.024,0,0,0-6.181-2.633" transform="translate(-24.817 -6.9)"/>
    <path id="패스_26463" data-name="패스 26463" class="cls-6" d="M156.382,39.6a13.594,13.594,0,0,1,10.131,3.9,13.745,13.745,0,0,1,3.843,10.076,14.721,14.721,0,0,1-3.494,10,11.748,11.748,0,0,1-9.351,4.032q-6.287,0-9.3-3.333l-.429-.538V80.5h-5.376V53.569a15.62,15.62,0,0,1,1.21-6.314,11.331,11.331,0,0,1,3.252-4.408A14.326,14.326,0,0,1,151.33,40.4,15.907,15.907,0,0,1,156.382,39.6Zm0,4.838a8.316,8.316,0,0,0-6.288,2.66,9.092,9.092,0,0,0-2.526,6.5,8.994,8.994,0,0,0,2.526,6.476,8.352,8.352,0,0,0,6.288,2.633,8.021,8.021,0,0,0,6.181-2.633,9.957,9.957,0,0,0,0-13.006A8.024,8.024,0,0,0,156.382,44.433Z" transform="translate(-24.817 -6.9)"/>
    <path id="패스_26464" data-name="패스 26464" class="cls-5" d="M195.434,39.6a13.594,13.594,0,0,1,10.131,3.9,13.745,13.745,0,0,1,3.843,10.076,14.721,14.721,0,0,1-3.494,10,11.748,11.748,0,0,1-9.351,4.032q-6.287,0-9.3-3.333l-.429-.538V80.5H181.46V53.569a15.62,15.62,0,0,1,1.21-6.314,11.331,11.331,0,0,1,3.252-4.408,14.326,14.326,0,0,1,4.461-2.446,15.907,15.907,0,0,1,5.052-.806m0,4.838a8.316,8.316,0,0,0-6.288,2.66,9.092,9.092,0,0,0-2.526,6.5,8.994,8.994,0,0,0,2.526,6.476,8.352,8.352,0,0,0,6.288,2.633,8.021,8.021,0,0,0,6.181-2.633,9.957,9.957,0,0,0,0-13.006,8.024,8.024,0,0,0-6.181-2.633" transform="translate(-31.623 -6.9)"/>
    <path id="패스_26465" data-name="패스 26465" class="cls-6" d="M195.434,39.6a13.594,13.594,0,0,1,10.131,3.9,13.745,13.745,0,0,1,3.843,10.076,14.721,14.721,0,0,1-3.494,10,11.748,11.748,0,0,1-9.351,4.032q-6.287,0-9.3-3.333l-.429-.538V80.5H181.46V53.569a15.62,15.62,0,0,1,1.21-6.314,11.331,11.331,0,0,1,3.252-4.408,14.326,14.326,0,0,1,4.461-2.446A15.907,15.907,0,0,1,195.434,39.6Zm0,4.838a8.316,8.316,0,0,0-6.288,2.66,9.092,9.092,0,0,0-2.526,6.5,8.994,8.994,0,0,0,2.526,6.476,8.352,8.352,0,0,0,6.288,2.633,8.021,8.021,0,0,0,6.181-2.633,9.957,9.957,0,0,0,0-13.006A8.024,8.024,0,0,0,195.434,44.433Z" transform="translate(-31.623 -6.9)"/>
    <path id="패스_26466" data-name="패스 26466" class="cls-5" d="M232.26,40.247v4.73h-5.483q-4.029,0-4.03,2.58v.323a2.859,2.859,0,0,0,1.236,1.693,20.689,20.689,0,0,0,2.66,1.746q1.532.86,3.092,1.935a9.45,9.45,0,0,1,2.606,2.714,6.592,6.592,0,0,1,1.048,3.627c0,.324-.018.681-.054,1.075q-.914,6.451-9.029,6.45h-6.02V62.335h6.342a5.038,5.038,0,0,0,2.822-.725,2.157,2.157,0,0,0,1.1-1.854,2.522,2.522,0,0,0-.054-.484,3.269,3.269,0,0,0-1.4-1.774,23.241,23.241,0,0,0-2.687-1.666,34.419,34.419,0,0,1-2.982-1.8,8.922,8.922,0,0,1-2.5-2.552,6.332,6.332,0,0,1-1.021-3.548,6.768,6.768,0,0,1,2.607-5.642,9.841,9.841,0,0,1,6.26-2.043Z" transform="translate(-37.975 -7.014)"/>
    <path id="패스_26467" data-name="패스 26467" class="cls-6" d="M232.26,40.247v4.73h-5.483q-4.029,0-4.03,2.58v.323a2.859,2.859,0,0,0,1.236,1.693,20.689,20.689,0,0,0,2.66,1.746q1.532.86,3.092,1.935a9.45,9.45,0,0,1,2.606,2.714,6.592,6.592,0,0,1,1.048,3.627c0,.324-.018.681-.054,1.075q-.914,6.451-9.029,6.45h-6.02V62.335h6.342a5.038,5.038,0,0,0,2.822-.725,2.157,2.157,0,0,0,1.1-1.854,2.522,2.522,0,0,0-.054-.484,3.269,3.269,0,0,0-1.4-1.774,23.241,23.241,0,0,0-2.687-1.666,34.419,34.419,0,0,1-2.982-1.8,8.922,8.922,0,0,1-2.5-2.552,6.332,6.332,0,0,1-1.021-3.548,6.768,6.768,0,0,1,2.607-5.642,9.841,9.841,0,0,1,6.26-2.043Z" transform="translate(-37.975 -7.014)"/>
  </g>
</svg>
