<svg id="igent_logo" xmlns="http://www.w3.org/2000/svg" xmlns:xlink="http://www.w3.org/1999/xlink" width="189.717" height="80" viewBox="0 0 189.717 80">
  <defs>
    <style>
      .cls-1, .cls-6 {
        fill: none;
      }

      .cls-2 {
        clip-path: url(#clip-path);
      }

      .cls-3 {
        fill: #265bfe;
      }

      .cls-4 {
        fill: #002087;
      }

      .cls-5 {
        fill: #080057;
      }

      .cls-6 {
        stroke: #080057;
        stroke-miterlimit: 10;
      }
    </style>
    <clipPath id="clip-path">
      <rect id="사각형_17853" data-name="사각형 17853" class="cls-1" width="189.717" height="80"/>
    </clipPath>
  </defs>
  <g id="그룹_16484" data-name="그룹 16484" class="cls-2">
    <path id="패스_26481" data-name="패스 26481" class="cls-3" d="M31.116,11.073A11.073,11.073,0,1,1,20.043,0,11.073,11.073,0,0,1,31.116,11.073" transform="translate(-1.563)"/>
    <path id="패스_26482" data-name="패스 26482" class="cls-4" d="M33.508,57.106l-7.337-5.95,2.5-2.874A11.64,11.64,0,0,0,12.236,31.868l0-.021a5.325,5.325,0,0,0-.888.879c-.088.094-.182.179-.268.277l-.285.329c-1.6,1.77-3.961,4.489-3.974,4.5s-3.25,3.79-3.258,3.8a11.26,11.26,0,0,0-3.493,9.2A11.288,11.288,0,0,0,4.066,57.8l6.468,5.171-.077.068L8.078,65.773A11.643,11.643,0,0,0,24.085,82.547c0,.012,0,.023,0,.035l.159-.166a11.607,11.607,0,0,0,1.423-1.367l2.019-2.324,6.75-7.539s6.257-6.607-.923-14.081" transform="translate(0 -5.054)"/>
    <path id="패스_26483" data-name="패스 26483" class="cls-3" d="M12.24,32.223c-.076-.162-5.4,5.968-5.415,5.99s-3.25,3.79-3.258,3.8a11.26,11.26,0,0,0-3.493,9.2,11.288,11.288,0,0,0,3.992,6.966L17.879,69.215s7.46,7.169,6.2,13.743l2.488-2.614,7.863-8.781s6.257-6.607-.923-14.081L18.192,45.061a8.133,8.133,0,0,1-.75-.691c-.529-.551-1.356-1.431-1.567-1.648-2.1-2.7-4.437-6.763-3.636-10.5" transform="translate(0 -5.615)"/>
    <path id="패스_26484" data-name="패스 26484" class="cls-5" d="M68.907,23.849h.055a2.66,2.66,0,0,1,0,5.32h-.055a2.66,2.66,0,0,1,0-5.32m-2.66,12.9h5.376V63.619H66.247Z" transform="translate(-11.545 -4.156)"/>
    <path id="패스_26485" data-name="패스 26485" class="cls-6" d="M68.907,23.849h.055a2.66,2.66,0,0,1,0,5.32h-.055a2.66,2.66,0,0,1,0-5.32Zm-2.66,12.9h5.376V63.619H66.247Z" transform="translate(-11.545 -4.156)"/>
    <rect id="사각형_17851" data-name="사각형 17851" class="cls-5" width="15.377" height="4.731" transform="translate(64.174 39.063)"/>
    <rect id="사각형_17852" data-name="사각형 17852" class="cls-6" width="15.377" height="4.731" transform="translate(64.174 39.063)"/>
    <path id="패스_26486" data-name="패스 26486" class="cls-5" d="M114.643,39.318a15.691,15.691,0,0,1,4.918.882A16.369,16.369,0,0,1,124,42.606a10.835,10.835,0,0,1,3.315,4.33,15.264,15.264,0,0,1,1.229,6.281V66.369q0,1.122-.107,2.219a15.194,15.194,0,0,1-.507,2.539,14.094,14.094,0,0,1-1.069,2.727,12.2,12.2,0,0,1-1.844,2.566,11.18,11.18,0,0,1-2.727,2.166,15.608,15.608,0,0,1-3.9,1.47,21.4,21.4,0,0,1-5.186.588,13.964,13.964,0,0,1-3.688-.481,13.128,13.128,0,0,1-2.915-1.123,15.585,15.585,0,0,1-2-1.31,7.28,7.28,0,0,1-1.23-1.149l-.373-.428,3.636-3.636c.071.071.168.178.294.321a8.671,8.671,0,0,0,.881.775,10.078,10.078,0,0,0,1.47.988,9.423,9.423,0,0,0,2.059.775,10.152,10.152,0,0,0,2.673.348,1.753,1.753,0,0,0,.427-.054q8.768-.321,8.768-8.5v-4.01a3.973,3.973,0,0,1-.348.428,12.63,12.63,0,0,1-1.069.962,12.786,12.786,0,0,1-1.737,1.23,10.775,10.775,0,0,1-2.325.962,9.856,9.856,0,0,1-2.86.428h-.214q-6.469-.108-10.184-4.063a13.879,13.879,0,0,1-3.716-9.89,13.245,13.245,0,0,1,13.9-13.9m0,4.812a7.978,7.978,0,0,0-6.148,2.619,9.9,9.9,0,0,0,0,12.938,7.975,7.975,0,0,0,6.148,2.619,8.313,8.313,0,0,0,6.254-2.619,8.944,8.944,0,0,0,2.513-6.442,9.038,9.038,0,0,0-2.513-6.469,8.272,8.272,0,0,0-6.254-2.646" transform="translate(-17.557 -6.852)"/>
    <path id="패스_26487" data-name="패스 26487" class="cls-6" d="M114.643,39.318a15.691,15.691,0,0,1,4.918.882A16.369,16.369,0,0,1,124,42.606a10.835,10.835,0,0,1,3.315,4.33,15.264,15.264,0,0,1,1.229,6.281V66.369q0,1.122-.107,2.219a15.194,15.194,0,0,1-.507,2.539,14.094,14.094,0,0,1-1.069,2.727,12.2,12.2,0,0,1-1.844,2.566,11.18,11.18,0,0,1-2.727,2.166,15.608,15.608,0,0,1-3.9,1.47,21.4,21.4,0,0,1-5.186.588,13.964,13.964,0,0,1-3.688-.481,13.128,13.128,0,0,1-2.915-1.123,15.585,15.585,0,0,1-2-1.31,7.28,7.28,0,0,1-1.23-1.149l-.373-.428,3.636-3.636c.071.071.168.178.294.321a8.671,8.671,0,0,0,.881.775,10.078,10.078,0,0,0,1.47.988,9.423,9.423,0,0,0,2.059.775,10.152,10.152,0,0,0,2.673.348,1.753,1.753,0,0,0,.427-.054q8.768-.321,8.768-8.5v-4.01a3.973,3.973,0,0,1-.348.428,12.63,12.63,0,0,1-1.069.962,12.786,12.786,0,0,1-1.737,1.23,10.775,10.775,0,0,1-2.325.962,9.856,9.856,0,0,1-2.86.428h-.214q-6.469-.108-10.184-4.063a13.879,13.879,0,0,1-3.716-9.89,13.245,13.245,0,0,1,13.9-13.9Zm0,4.812a7.978,7.978,0,0,0-6.148,2.619,9.9,9.9,0,0,0,0,12.938,7.975,7.975,0,0,0,6.148,2.619,8.313,8.313,0,0,0,6.254-2.619,8.944,8.944,0,0,0,2.513-6.442,9.038,9.038,0,0,0-2.513-6.469A8.272,8.272,0,0,0,114.643,44.13Z" transform="translate(-17.557 -6.852)"/>
    <path id="패스_26488" data-name="패스 26488" class="cls-5" d="M144.287,54.607a9.037,9.037,0,0,0,2.779,5.427,7.882,7.882,0,0,0,5.613,2.165,7.691,7.691,0,0,0,6.576-3.208l3.635,3.636a13.387,13.387,0,0,1-4.57,3.314,13.741,13.741,0,0,1-5.641,1.176,13.157,13.157,0,0,1-9.73-4.063,14.071,14.071,0,0,1,0-19.674,13.16,13.16,0,0,1,9.73-4.063,12.9,12.9,0,0,1,9.65,4.063,13.638,13.638,0,0,1,3.929,9.837q0,.535-.054,1.39-4.383-.052-9.248-.054-4.651,0-12.67.054m8.393-10.1a8.609,8.609,0,0,0-5.132,1.523,7.7,7.7,0,0,0-2.94,4.2h15.984a7.862,7.862,0,0,0-2.86-4.2,8.255,8.255,0,0,0-5.052-1.523" transform="translate(-24.213 -6.852)"/>
    <path id="패스_26489" data-name="패스 26489" class="cls-6" d="M144.287,54.607a9.037,9.037,0,0,0,2.779,5.427,7.882,7.882,0,0,0,5.613,2.165,7.691,7.691,0,0,0,6.576-3.208l3.635,3.636a13.387,13.387,0,0,1-4.57,3.314,13.741,13.741,0,0,1-5.641,1.176,13.157,13.157,0,0,1-9.73-4.063,14.071,14.071,0,0,1,0-19.674,13.16,13.16,0,0,1,9.73-4.063,12.9,12.9,0,0,1,9.65,4.063,13.638,13.638,0,0,1,3.929,9.837q0,.535-.054,1.39-4.383-.052-9.248-.054Q152.306,54.554,144.287,54.607Zm8.393-10.1a8.609,8.609,0,0,0-5.132,1.523,7.7,7.7,0,0,0-2.94,4.2h15.984a7.862,7.862,0,0,0-2.86-4.2A8.255,8.255,0,0,0,152.679,44.5Z" transform="translate(-24.213 -6.852)"/>
    <path id="패스_26490" data-name="패스 26490" class="cls-5" d="M202.383,67.165h-5.347V53.907q0-4.491-1.951-6.923a6.747,6.747,0,0,0-5.587-2.433,6.357,6.357,0,0,0-5.372,2.405q-1.846,2.407-1.844,7V67.218l-5.079-.054V52.41a12.385,12.385,0,0,1,3.448-8.9Q184.1,39.9,190.034,39.9q.853,0,1.656.054a14.593,14.593,0,0,1,2.111.348,13.1,13.1,0,0,1,2.405.775,11,11,0,0,1,2.3,1.416,8.495,8.495,0,0,1,2,2.219,12.18,12.18,0,0,1,1.338,3.261,17.077,17.077,0,0,1,.534,4.437Z" transform="translate(-30.881 -6.953)"/>
    <path id="패스_26491" data-name="패스 26491" class="cls-6" d="M202.383,67.165h-5.347V53.907q0-4.491-1.951-6.923a6.747,6.747,0,0,0-5.587-2.433,6.357,6.357,0,0,0-5.372,2.405q-1.846,2.407-1.844,7V67.218l-5.079-.054V52.41a12.385,12.385,0,0,1,3.448-8.9Q184.1,39.9,190.034,39.9q.853,0,1.656.054a14.593,14.593,0,0,1,2.111.348,13.1,13.1,0,0,1,2.405.775,11,11,0,0,1,2.3,1.416,8.495,8.495,0,0,1,2,2.219,12.18,12.18,0,0,1,1.338,3.261,17.077,17.077,0,0,1,.534,4.437Z" transform="translate(-30.881 -6.953)"/>
    <path id="패스_26492" data-name="패스 26492" class="cls-5" d="M212.424,27.664h5.346V38.356h7.271V42.9H217.77v8.82a8.174,8.174,0,0,0,2.379,6.121,8.456,8.456,0,0,0,6.175,2.326v4.918a13.837,13.837,0,0,1-9.837-3.822,12.561,12.561,0,0,1-4.063-9.543Z" transform="translate(-37.019 -4.821)"/>
    <path id="패스_26493" data-name="패스 26493" class="cls-6" d="M212.424,27.664h5.346V38.356h7.271V42.9H217.77v8.82a8.174,8.174,0,0,0,2.379,6.121,8.456,8.456,0,0,0,6.175,2.326v4.918a13.837,13.837,0,0,1-9.837-3.822,12.561,12.561,0,0,1-4.063-9.543Z" transform="translate(-37.019 -4.821)"/>
  </g>
</svg>
