<svg id="ireview_logo" xmlns="http://www.w3.org/2000/svg" xmlns:xlink="http://www.w3.org/1999/xlink" width="235.38" height="80" viewBox="0 0 235.38 80">
  <defs>
    <style>
      .cls-1, .cls-6 {
        fill: none;
      }

      .cls-2 {
        clip-path: url(#clip-path);
      }

      .cls-3 {
        fill: #265bfe;
      }

      .cls-4 {
        fill: #002087;
      }

      .cls-5 {
        fill: #080057;
      }

      .cls-6 {
        stroke: #080057;
        stroke-miterlimit: 10;
      }
    </style>
    <clipPath id="clip-path">
      <rect id="사각형_17856" data-name="사각형 17856" class="cls-1" width="235.38" height="80"/>
    </clipPath>
  </defs>
  <g id="그룹_16486" data-name="그룹 16486" class="cls-2">
    <path id="패스_26494" data-name="패스 26494" class="cls-3" d="M31.116,11.073A11.073,11.073,0,1,1,20.043,0,11.073,11.073,0,0,1,31.116,11.073" transform="translate(-1.563)"/>
    <path id="패스_26495" data-name="패스 26495" class="cls-4" d="M33.508,57.106l-7.337-5.95,2.5-2.874A11.64,11.64,0,0,0,12.236,31.868l0-.021a5.325,5.325,0,0,0-.888.879c-.088.094-.182.179-.268.277l-.285.329c-1.6,1.77-3.961,4.489-3.974,4.5s-3.25,3.79-3.258,3.8a11.26,11.26,0,0,0-3.493,9.2A11.288,11.288,0,0,0,4.066,57.8l6.468,5.171-.077.068L8.078,65.773A11.643,11.643,0,0,0,24.085,82.547c0,.012,0,.023,0,.035l.159-.166a11.607,11.607,0,0,0,1.423-1.367l2.019-2.324,6.75-7.539s6.257-6.607-.923-14.081" transform="translate(0 -5.054)"/>
    <path id="패스_26496" data-name="패스 26496" class="cls-3" d="M12.24,32.223c-.076-.162-5.4,5.968-5.415,5.99s-3.25,3.79-3.258,3.8a11.26,11.26,0,0,0-3.493,9.2,11.288,11.288,0,0,0,3.992,6.966L17.879,69.215s7.46,7.169,6.2,13.743l2.488-2.614,7.863-8.781s6.257-6.607-.923-14.081L18.192,45.061a8.133,8.133,0,0,1-.75-.691c-.529-.551-1.356-1.431-1.567-1.648-2.1-2.7-4.437-6.763-3.636-10.5" transform="translate(0 -5.615)"/>
    <path id="패스_26497" data-name="패스 26497" class="cls-5" d="M68.907,23.99h.055a2.66,2.66,0,0,1,0,5.32h-.055a2.66,2.66,0,0,1,0-5.32m-2.66,12.9h5.376V63.761H66.247Z" transform="translate(-11.545 -4.181)"/>
    <path id="패스_26498" data-name="패스 26498" class="cls-6" d="M68.907,23.99h.055a2.66,2.66,0,0,1,0,5.32h-.055a2.66,2.66,0,0,1,0-5.32Zm-2.66,12.9h5.376V63.761H66.247Z" transform="translate(-11.545 -4.181)"/>
    <rect id="사각형_17854" data-name="사각형 17854" class="cls-5" width="15.377" height="4.731" transform="translate(64.174 39.18)"/>
    <rect id="사각형_17855" data-name="사각형 17855" class="cls-6" width="15.377" height="4.731" transform="translate(64.174 39.18)"/>
    <path id="패스_26499" data-name="패스 26499" class="cls-5" d="M115.547,39.439v6.1a8.81,8.81,0,0,0-6.124,2.12,7.13,7.13,0,0,0-2.359,5.567V66.48h-5.3V53.225q0-6.361,3.79-10.074a13.676,13.676,0,0,1,9.995-3.712" transform="translate(-17.734 -6.873)"/>
    <path id="패스_26500" data-name="패스 26500" class="cls-6" d="M115.547,39.439v6.1a8.81,8.81,0,0,0-6.124,2.12,7.13,7.13,0,0,0-2.359,5.567V66.48h-5.3V53.225q0-6.361,3.79-10.074A13.676,13.676,0,0,1,115.547,39.439Z" transform="translate(-17.734 -6.873)"/>
    <path id="패스_26501" data-name="패스 26501" class="cls-5" d="M125.685,54.668a8.96,8.96,0,0,0,2.757,5.381,7.813,7.813,0,0,0,5.567,2.148,7.625,7.625,0,0,0,6.522-3.182l3.606,3.606a13.282,13.282,0,0,1-4.534,3.287,13.627,13.627,0,0,1-5.594,1.167,13.052,13.052,0,0,1-9.65-4.03,13.958,13.958,0,0,1,0-19.512,13.054,13.054,0,0,1,9.65-4.03,12.8,12.8,0,0,1,9.571,4.03,13.522,13.522,0,0,1,3.9,9.757q0,.53-.053,1.378-4.349-.052-9.173-.053-4.613,0-12.566.053m8.324-10.021a8.541,8.541,0,0,0-5.09,1.511A7.634,7.634,0,0,0,126,50.32h15.854a7.8,7.8,0,0,0-2.837-4.163,8.187,8.187,0,0,0-5.011-1.511" transform="translate(-20.979 -6.884)"/>
    <path id="패스_26502" data-name="패스 26502" class="cls-6" d="M125.685,54.668a8.96,8.96,0,0,0,2.757,5.381,7.813,7.813,0,0,0,5.567,2.148,7.625,7.625,0,0,0,6.522-3.182l3.606,3.606a13.282,13.282,0,0,1-4.534,3.287,13.627,13.627,0,0,1-5.594,1.167,13.052,13.052,0,0,1-9.65-4.03,13.958,13.958,0,0,1,0-19.512,13.054,13.054,0,0,1,9.65-4.03,12.8,12.8,0,0,1,9.571,4.03,13.522,13.522,0,0,1,3.9,9.757q0,.53-.053,1.378-4.349-.052-9.173-.053Q133.638,54.615,125.685,54.668Zm8.324-10.021a8.541,8.541,0,0,0-5.09,1.511A7.634,7.634,0,0,0,126,50.32h15.854a7.8,7.8,0,0,0-2.837-4.163A8.187,8.187,0,0,0,134.009,44.646Z" transform="translate(-20.979 -6.884)"/>
    <path id="패스_26503" data-name="패스 26503" class="cls-5" d="M155.637,40.209H161.2l8.006,21.05h.159l8.006-21.05h5.143L172.444,66.72h-6.733Z" transform="translate(-27.123 -7.007)"/>
    <path id="패스_26504" data-name="패스 26504" class="cls-6" d="M155.637,40.209H161.2l8.006,21.05h.159l8.006-21.05h5.143L172.444,66.72h-6.733Z" transform="translate(-27.123 -7.007)"/>
    <path id="패스_26505" data-name="패스 26505" class="cls-5" d="M192.816,24.735h5.3v5.248h-5.3Zm0,12.724h5.3V63.97h-5.3Z" transform="translate(-33.602 -4.311)"/>
    <path id="패스_26506" data-name="패스 26506" class="cls-6" d="M192.816,24.735h5.3v5.248h-5.3Zm0,12.724h5.3V63.97h-5.3Z" transform="translate(-33.602 -4.311)"/>
    <path id="패스_26507" data-name="패스 26507" class="cls-5" d="M209.675,54.668a8.96,8.96,0,0,0,2.757,5.381A7.813,7.813,0,0,0,218,62.2a7.625,7.625,0,0,0,6.522-3.182l3.606,3.606a13.282,13.282,0,0,1-4.534,3.287A13.627,13.627,0,0,1,218,67.075a13.052,13.052,0,0,1-9.65-4.03,13.958,13.958,0,0,1,0-19.512A13.054,13.054,0,0,1,218,39.5a12.8,12.8,0,0,1,9.571,4.03,13.522,13.522,0,0,1,3.9,9.757q0,.53-.053,1.378-4.349-.052-9.173-.053-4.613,0-12.566.053M218,44.646a8.541,8.541,0,0,0-5.09,1.511,7.635,7.635,0,0,0-2.916,4.163h15.854a7.8,7.8,0,0,0-2.837-4.163A8.187,8.187,0,0,0,218,44.646" transform="translate(-35.616 -6.884)"/>
    <path id="패스_26508" data-name="패스 26508" class="cls-6" d="M209.675,54.668a8.96,8.96,0,0,0,2.757,5.381A7.813,7.813,0,0,0,218,62.2a7.625,7.625,0,0,0,6.522-3.182l3.606,3.606a13.282,13.282,0,0,1-4.534,3.287A13.627,13.627,0,0,1,218,67.075a13.052,13.052,0,0,1-9.65-4.03,13.958,13.958,0,0,1,0-19.512A13.054,13.054,0,0,1,218,39.5a12.8,12.8,0,0,1,9.571,4.03,13.522,13.522,0,0,1,3.9,9.757q0,.53-.053,1.378-4.349-.052-9.173-.053Q217.628,54.615,209.675,54.668ZM218,44.646a8.541,8.541,0,0,0-5.09,1.511,7.635,7.635,0,0,0-2.916,4.163h15.854a7.8,7.8,0,0,0-2.837-4.163A8.187,8.187,0,0,0,218,44.646Z" transform="translate(-35.616 -6.884)"/>
    <path id="패스_26509" data-name="패스 26509" class="cls-5" d="M239.883,40.209h5.3l4.56,21.05h.107l5.567-21.05h6.257l6.257,21.05h.106l3.87-21.05h4.772l-5.3,26.458h-6.788l-6.044-21h-.212l-5.461,21h-7.052Z" transform="translate(-41.804 -7.007)"/>
    <path id="패스_26510" data-name="패스 26510" class="cls-6" d="M239.883,40.209h5.3l4.56,21.05h.107l5.567-21.05h6.257l6.257,21.05h.106l3.87-21.05h4.772l-5.3,26.458h-6.788l-6.044-21h-.212l-5.461,21h-7.052Z" transform="translate(-41.804 -7.007)"/>
  </g>
</svg>
