<svg id="isend_logo" xmlns="http://www.w3.org/2000/svg" xmlns:xlink="http://www.w3.org/1999/xlink" width="189.052" height="80" viewBox="0 0 189.052 80">
  <defs>
    <style>
      .cls-1, .cls-6 {
        fill: none;
      }

      .cls-2 {
        clip-path: url(#clip-path);
      }

      .cls-3 {
        fill: #265bfe;
      }

      .cls-4 {
        fill: #002087;
      }

      .cls-5 {
        fill: #080057;
      }

      .cls-6 {
        stroke: #080057;
        stroke-miterlimit: 10;
      }
    </style>
    <clipPath id="clip-path">
      <rect id="사각형_17850" data-name="사각형 17850" class="cls-1" width="189.052" height="80"/>
    </clipPath>
  </defs>
  <g id="그룹_16482" data-name="그룹 16482" class="cls-2">
    <path id="패스_26468" data-name="패스 26468" class="cls-3" d="M31.116,11.073A11.073,11.073,0,1,1,20.043,0,11.073,11.073,0,0,1,31.116,11.073" transform="translate(-1.563)"/>
    <path id="패스_26469" data-name="패스 26469" class="cls-4" d="M33.508,57.106l-7.337-5.95,2.5-2.874A11.64,11.64,0,0,0,12.236,31.868l0-.021a5.325,5.325,0,0,0-.888.879c-.088.094-.182.179-.268.277l-.285.329c-1.6,1.77-3.961,4.489-3.974,4.5s-3.25,3.79-3.258,3.8a11.26,11.26,0,0,0-3.493,9.2A11.288,11.288,0,0,0,4.066,57.8l6.468,5.171-.077.068L8.078,65.773A11.643,11.643,0,0,0,24.085,82.547c0,.012,0,.023,0,.035l.159-.166a11.607,11.607,0,0,0,1.423-1.367l2.019-2.324,6.75-7.539s6.257-6.607-.923-14.081" transform="translate(0 -5.054)"/>
    <path id="패스_26470" data-name="패스 26470" class="cls-3" d="M12.24,32.223c-.076-.162-5.4,5.968-5.415,5.99s-3.25,3.79-3.258,3.8a11.26,11.26,0,0,0-3.493,9.2,11.288,11.288,0,0,0,3.992,6.966L17.879,69.215s7.46,7.169,6.2,13.743l2.488-2.614,7.863-8.781s6.257-6.607-.923-14.081L18.192,45.061a8.133,8.133,0,0,1-.75-.691c-.529-.551-1.356-1.431-1.567-1.648-2.1-2.7-4.437-6.763-3.636-10.5" transform="translate(0 -5.615)"/>
    <path id="패스_26471" data-name="패스 26471" class="cls-5" d="M114.4,40.718v4.7H108.96q-4,0-4,2.562v.32a2.84,2.84,0,0,0,1.227,1.681,20.7,20.7,0,0,0,2.642,1.734q1.522.855,3.069,1.921a9.364,9.364,0,0,1,2.589,2.7,6.556,6.556,0,0,1,1.041,3.6c0,.32-.019.676-.054,1.068q-.907,6.4-8.965,6.4h-5.978v-4.75h6.3a5.013,5.013,0,0,0,2.8-.72,2.142,2.142,0,0,0,1.093-1.841,2.491,2.491,0,0,0-.053-.481,3.245,3.245,0,0,0-1.387-1.76,23.152,23.152,0,0,0-2.67-1.655,34.568,34.568,0,0,1-2.961-1.788,8.844,8.844,0,0,1-2.482-2.536,6.279,6.279,0,0,1-1.014-3.522,6.723,6.723,0,0,1,2.589-5.6,9.775,9.775,0,0,1,6.217-2.028Z" transform="translate(-17.454 -7.096)"/>
    <path id="패스_26472" data-name="패스 26472" class="cls-6" d="M114.4,40.718v4.7H108.96q-4,0-4,2.562v.32a2.84,2.84,0,0,0,1.227,1.681,20.7,20.7,0,0,0,2.642,1.734q1.522.855,3.069,1.921a9.364,9.364,0,0,1,2.589,2.7,6.556,6.556,0,0,1,1.041,3.6c0,.32-.019.676-.054,1.068q-.907,6.4-8.965,6.4h-5.978v-4.75h6.3a5.013,5.013,0,0,0,2.8-.72,2.142,2.142,0,0,0,1.093-1.841,2.491,2.491,0,0,0-.053-.481,3.245,3.245,0,0,0-1.387-1.76,23.152,23.152,0,0,0-2.67-1.655,34.568,34.568,0,0,1-2.961-1.788,8.844,8.844,0,0,1-2.482-2.536,6.279,6.279,0,0,1-1.014-3.522,6.723,6.723,0,0,1,2.589-5.6,9.775,9.775,0,0,1,6.217-2.028Z" transform="translate(-17.454 -7.096)"/>
    <path id="패스_26473" data-name="패스 26473" class="cls-5" d="M126.368,54.689a9.015,9.015,0,0,0,2.775,5.417,7.866,7.866,0,0,0,5.6,2.162,7.677,7.677,0,0,0,6.565-3.2l3.63,3.629A13.373,13.373,0,0,1,140.377,66a13.7,13.7,0,0,1-5.631,1.174,13.14,13.14,0,0,1-9.714-4.056,14.05,14.05,0,0,1,0-19.64,13.144,13.144,0,0,1,9.714-4.057,12.884,12.884,0,0,1,9.634,4.057A13.608,13.608,0,0,1,148.3,53.3q0,.534-.053,1.388-4.377-.053-9.233-.054-4.643,0-12.649.054M134.746,44.6a8.6,8.6,0,0,0-5.124,1.521,7.692,7.692,0,0,0-2.935,4.19h15.958a7.845,7.845,0,0,0-2.855-4.19,8.241,8.241,0,0,0-5.044-1.521" transform="translate(-21.092 -6.871)"/>
    <path id="패스_26474" data-name="패스 26474" class="cls-6" d="M126.368,54.689a9.015,9.015,0,0,0,2.775,5.417,7.866,7.866,0,0,0,5.6,2.162,7.677,7.677,0,0,0,6.565-3.2l3.63,3.629A13.373,13.373,0,0,1,140.377,66a13.7,13.7,0,0,1-5.631,1.174,13.14,13.14,0,0,1-9.714-4.056,14.05,14.05,0,0,1,0-19.64,13.144,13.144,0,0,1,9.714-4.057,12.884,12.884,0,0,1,9.634,4.057A13.608,13.608,0,0,1,148.3,53.3q0,.534-.053,1.388-4.377-.053-9.233-.054Q134.373,54.636,126.368,54.689ZM134.746,44.6a8.6,8.6,0,0,0-5.124,1.521,7.692,7.692,0,0,0-2.935,4.19h15.958a7.845,7.845,0,0,0-2.855-4.19A8.241,8.241,0,0,0,134.746,44.6Z" transform="translate(-21.092 -6.871)"/>
    <path id="패스_26475" data-name="패스 26475" class="cls-5" d="M184.367,67.226h-5.338V53.991q0-4.484-1.948-6.911a6.734,6.734,0,0,0-5.577-2.428,6.347,6.347,0,0,0-5.364,2.4q-1.842,2.4-1.841,6.991V67.279l-5.07-.053V52.5a12.368,12.368,0,0,1,3.442-8.887q3.442-3.6,9.366-3.6c.569,0,1.121.019,1.655.054a14.792,14.792,0,0,1,2.108.347,13.1,13.1,0,0,1,2.4.774A11.045,11.045,0,0,1,180.5,42.6a8.459,8.459,0,0,1,2,2.215,12.149,12.149,0,0,1,1.335,3.255,17.058,17.058,0,0,1,.533,4.43Z" transform="translate(-27.749 -6.972)"/>
    <path id="패스_26476" data-name="패스 26476" class="cls-6" d="M184.367,67.226h-5.338V53.991q0-4.484-1.948-6.911a6.734,6.734,0,0,0-5.577-2.428,6.347,6.347,0,0,0-5.364,2.4q-1.842,2.4-1.841,6.991V67.279l-5.07-.053V52.5a12.368,12.368,0,0,1,3.442-8.887q3.442-3.6,9.366-3.6c.569,0,1.121.019,1.655.054a14.792,14.792,0,0,1,2.108.347,13.1,13.1,0,0,1,2.4.774A11.045,11.045,0,0,1,180.5,42.6a8.459,8.459,0,0,1,2,2.215,12.149,12.149,0,0,1,1.335,3.255,17.058,17.058,0,0,1,.533,4.43Z" transform="translate(-27.749 -6.972)"/>
    <path id="패스_26477" data-name="패스 26477" class="cls-5" d="M208.719,64.463a13.225,13.225,0,0,1-13.877-13.876,14.731,14.731,0,0,1,3.363-9.981q3.362-3.894,9.82-3.949h.107a13.5,13.5,0,0,1,3.335.4,10.22,10.22,0,0,1,2.589.988,15.144,15.144,0,0,1,1.789,1.2,8.532,8.532,0,0,1,1.093.988l.32.427V23.848H222.6V50.587a15.54,15.54,0,0,1-1.2,6.271,11.266,11.266,0,0,1-3.229,4.377,14.208,14.208,0,0,1-4.43,2.428,15.765,15.765,0,0,1-5.016.8m0-4.8a8.257,8.257,0,0,0,6.244-2.642,9.028,9.028,0,0,0,2.509-6.458,8.938,8.938,0,0,0-2.509-6.431,8.3,8.3,0,0,0-6.244-2.615,7.969,7.969,0,0,0-6.138,2.615,9.2,9.2,0,0,0-2.4,6.458,9.2,9.2,0,0,0,2.4,6.458,7.966,7.966,0,0,0,6.138,2.615" transform="translate(-33.955 -4.156)"/>
    <path id="패스_26478" data-name="패스 26478" class="cls-6" d="M208.719,64.463a13.225,13.225,0,0,1-13.877-13.876,14.731,14.731,0,0,1,3.363-9.981q3.362-3.894,9.82-3.949h.107a13.5,13.5,0,0,1,3.335.4,10.22,10.22,0,0,1,2.589.988,15.144,15.144,0,0,1,1.789,1.2,8.532,8.532,0,0,1,1.093.988l.32.427V23.848H222.6V50.587a15.54,15.54,0,0,1-1.2,6.271,11.266,11.266,0,0,1-3.229,4.377,14.208,14.208,0,0,1-4.43,2.428A15.765,15.765,0,0,1,208.719,64.463Zm0-4.8a8.257,8.257,0,0,0,6.244-2.642,9.028,9.028,0,0,0,2.509-6.458,8.938,8.938,0,0,0-2.509-6.431,8.3,8.3,0,0,0-6.244-2.615,7.969,7.969,0,0,0-6.138,2.615,9.2,9.2,0,0,0-2.4,6.458,9.2,9.2,0,0,0,2.4,6.458A7.966,7.966,0,0,0,208.719,59.66Z" transform="translate(-33.955 -4.156)"/>
    <path id="패스_26479" data-name="패스 26479" class="cls-5" d="M68.638,24.871h.055a2.66,2.66,0,0,1,0,5.32h-.055a2.66,2.66,0,1,1,0-5.32m-2.66,12.9h5.376V64.642H65.978Z" transform="translate(-11.498 -4.334)"/>
    <path id="패스_26480" data-name="패스 26480" class="cls-6" d="M68.638,24.871h.055a2.66,2.66,0,0,1,0,5.32h-.055a2.66,2.66,0,1,1,0-5.32Zm-2.66,12.9h5.376V64.642H65.978Z" transform="translate(-11.498 -4.334)"/>
    <rect id="사각형_17848" data-name="사각형 17848" class="cls-5" width="15.377" height="4.731" transform="translate(63.953 39.063)"/>
    <rect id="사각형_17849" data-name="사각형 17849" class="cls-6" width="15.377" height="4.731" transform="translate(63.953 39.063)"/>
  </g>
</svg>
