<svg xmlns="http://www.w3.org/2000/svg" width="17.5" height="20" viewBox="0 0 17.5 20">
    <path d="M15.625 2.5H13.75V.469A.47.47 0 0 0 13.281 0h-.313a.47.47 0 0 0-.468.469V2.5H5V.469A.47.47 0 0 0 4.531 0h-.312a.47.47 0 0 0-.469.469V2.5H1.875A1.875 1.875 0 0 0 0 4.375v13.75A1.875 1.875 0 0 0 1.875 20h13.75a1.875 1.875 0 0 0 1.875-1.875V4.375A1.875 1.875 0 0 0 15.625 2.5zM1.875 3.75h13.75a.627.627 0 0 1 .625.625V6.25h-15V4.375a.627.627 0 0 1 .625-.625zm13.75 15H1.875a.627.627 0 0 1-.625-.625V7.5h15v10.625a.627.627 0 0 1-.625.625zM5.781 12.5H4.219a.47.47 0 0 1-.469-.469v-1.562A.47.47 0 0 1 4.219 10h1.562a.47.47 0 0 1 .469.469v1.562a.47.47 0 0 1-.469.469zm3.75 0H7.969a.47.47 0 0 1-.469-.469v-1.562A.47.47 0 0 1 7.969 10h1.562a.47.47 0 0 1 .469.469v1.562a.47.47 0 0 1-.469.469zm3.75 0h-1.562a.47.47 0 0 1-.469-.469v-1.562a.47.47 0 0 1 .469-.469h1.563a.47.47 0 0 1 .469.469v1.562a.47.47 0 0 1-.47.469zm-3.75 3.75H7.969a.47.47 0 0 1-.469-.469v-1.562a.47.47 0 0 1 .469-.469h1.562a.47.47 0 0 1 .469.469v1.562a.47.47 0 0 1-.469.469zm-3.75 0H4.219a.47.47 0 0 1-.469-.469v-1.562a.47.47 0 0 1 .469-.469h1.562a.47.47 0 0 1 .469.469v1.562a.47.47 0 0 1-.469.469zm7.5 0h-1.562a.47.47 0 0 1-.469-.469v-1.562a.47.47 0 0 1 .469-.469h1.563a.47.47 0 0 1 .469.469v1.562a.47.47 0 0 1-.47.469z" style="fill:#fff"/>
</svg>
