<svg xmlns="http://www.w3.org/2000/svg" width="31" height="31" viewBox="0 0 31 31">
    <g data-name="그룹 4940" transform="translate(-15 -19)">
        <circle data-name="타원 153" cx="15.5" cy="15.5" r="15.5" transform="translate(15 19)" style="fill:#7ca74e"/>
        <path data-name="패스 11393" d="m13.287 11.274-.952-6.291-1.9 6.4c-.37.946-.944 1.237-2.365 1.237h-1L5.479 4.983l-1.962 6.548a1.6 1.6 0 0 1-1.826 1.086H0L4.614 0C6.686 0 7.6.533 7.821 1.981L9 7.553 11.471 0c2.2 0 3.034.888 3.2 1.963L16.3 12.617h-1.056c-.688 0-1.674.173-1.957-1.343" transform="translate(22 28)" style="fill:#fff"/>
    </g>
</svg>
