<svg xmlns="http://www.w3.org/2000/svg" width="88.421" height="19" viewBox="0 0 88.421 19">
    <defs>
        <clipPath id="to842hat8a">
            <path data-name="사각형 2894" style="fill:#9ba0a2" d="M0 0h88.421v19H0z"/>
        </clipPath>
    </defs>
    <g data-name="그룹 4118" style="clip-path:url(#to842hat8a)">
        <path data-name="패스 11350" d="M20 16.969 18.567 7.5 15.7 17.129c-.557 1.423-1.422 1.862-3.56 1.862h-1.51L8.247 7.5l-2.954 9.856c-.667 1.544-1.518 1.635-2.748 1.635H0L6.945 0c3.118 0 4.5.8 4.827 2.982l1.768 8.387L17.265 0c3.315 0 4.567 1.336 4.822 2.955l2.443 16.036h-1.584c-1.036 0-2.52.26-2.946-2.022" style="fill:#9ba0a2"/>
        <path data-name="패스 11351" d="M93.713 23.539a3.552 3.552 0 0 1-1.113 2.766 4.091 4.091 0 0 1-2.864 1.008h-6.315a4.089 4.089 0 0 1-2.863-1.008 3.551 3.551 0 0 1-1.109-2.766V15.9a3.1 3.1 0 0 1 1.051-2.65 4.825 4.825 0 0 1 2.919-.717h6.321a4.826 4.826 0 0 1 2.919.717 3.1 3.1 0 0 1 1.054 2.65zm-3.973-.881V17q0-1.09-1.035-1.09h-4.249q-1.035 0-1.035 1.09v5.653q0 1.405 1.127 1.4h4.065q1.127 0 1.127-1.4" transform="translate(-53.579 -8.452)" style="fill:#9ba0a2"/>
        <path data-name="패스 11352" d="M143.4 23.951q0 3.363-3.788 3.362h-10.378v-14.78h10.383q3.787 0 3.788 3.363zm-5.181-8.051h-5.013v2.291h5.007a1.1 1.1 0 0 0 1.219-1.145c0-.861-.487-1.147-1.214-1.147m-.006 5.432h-5.007v2.623l5.007-.019a1.169 1.169 0 0 0 1.219-1.312 1.149 1.149 0 0 0-1.219-1.293" transform="translate(-87.153 -8.452)" style="fill:#9ba0a2"/>
        <path data-name="패스 11353" d="M242.2 27.315h-3.972v-9.993a1.291 1.291 0 0 0-.462-1.147 2.244 2.244 0 0 0-1.275-.278H232v11.418h-3.972V12.534h10.2a4.166 4.166 0 0 1 2.882.942 3.639 3.639 0 0 1 1.09 2.824z" transform="translate(-153.779 -8.453)" style="fill:#9ba0a2"/>
        <path data-name="패스 11354" d="M191.652 13.25a4.825 4.825 0 0 0-2.919-.717h-1.047v3.25c0 .044 0 .088-.007.131h.014q1.035 0 1.035 1.09v5.653q0 1.405-1.127 1.4h-4.065q-1.127 0-1.127-1.4V17q0-1.09 1.034-1.09h.014c0-.043-.007-.087-.007-.131v-3.246h-1.047a4.826 4.826 0 0 0-2.919.717 3.1 3.1 0 0 0-1.053 2.646v7.643a3.551 3.551 0 0 0 1.109 2.766 4.09 4.09 0 0 0 2.864 1.009h6.319a4.091 4.091 0 0 0 2.864-1.009 3.552 3.552 0 0 0 1.109-2.766V15.9a3.1 3.1 0 0 0-1.053-2.646" transform="translate(-120.338 -8.452)" style="fill:#9ba0a2"/>
        <path data-name="패스 11355" d="M198.989 10.844a.907.907 0 0 0-.9-.816h-.7a.907.907 0 0 0-.9.816.877.877 0 0 0-.009.093v3.157a.876.876 0 0 0 .013.131.908.908 0 0 0 .9.778h.7a.908.908 0 0 0 .9-.778.874.874 0 0 0 .013-.131v-3.157a.877.877 0 0 0-.009-.093" transform="translate(-132.506 -6.763)" style="fill:#9ba0a2"/>
    </g>
</svg>
