<svg xmlns="http://www.w3.org/2000/svg" width="58.966" height="74.767" viewBox="0 0 58.966 74.767">
    <defs>
        <clipPath id="o5j7973nca">
            <path data-name="사각형 2959" style="stroke:#ccc;stroke-width:3px;fill:none" d="M0 0h58.966v74.767H0z"/>
        </clipPath>
    </defs>
    <g data-name="그룹 4341">
        <g data-name="그룹 4340" style="clip-path:url(#o5j7973nca)">
            <path data-name="패스 11427" d="M29.718 75.076a8.255 8.255 0 1 1-2.591 3.1" transform="translate(-5.089 -18.21)" style="fill:#fff"/>
            <path data-name="패스 11428" d="M29.718 75.076a8.255 8.255 0 1 1-2.591 3.1" transform="translate(-5.089 -18.21)" style="stroke-linejoin:round;stroke-linecap:round;stroke:#ccc;stroke-width:3px;fill:none"/>
            <path data-name="패스 11429" d="M12.516 16.143A21.124 21.124 0 0 0 6.338 31.1v9.1a31.248 31.248 0 0 1-4.467 16.1l-.432.721a3.03 3.03 0 0 0 2.6 4.591h47a3.03 3.03 0 0 0 2.6-4.591 34.279 34.279 0 0 1-4.9-17.662V31.54A21.556 21.556 0 0 0 30.18 10.068a4.9 4.9 0 1 0-5.191-.012 24.5 24.5 0 0 0-10.951 4.729z" transform="translate(1.947 1.947)" style="fill:#fff"/>
            <path data-name="패스 11430" d="M12.516 16.143A21.124 21.124 0 0 0 6.338 31.1v9.1a31.248 31.248 0 0 1-4.467 16.1l-.432.721a3.03 3.03 0 0 0 2.6 4.591h47a3.03 3.03 0 0 0 2.6-4.591 34.279 34.279 0 0 1-4.9-17.662V31.54A21.556 21.556 0 0 0 30.18 10.068a4.9 4.9 0 1 0-5.191-.012 24.5 24.5 0 0 0-10.951 4.729z" transform="translate(1.947 1.947)" style="stroke-linejoin:round;stroke-linecap:round;stroke:#ccc;stroke-width:3px;fill:none"/>
            <path data-name="선 296" transform="translate(45.524 51.826)" style="fill:#f2cc5f" d="M0 0h6.815"/>
            <path data-name="선 298" transform="translate(6.743 51.826)" style="fill:#f2cc5f" d="M0 0h45.124"/>
            <path data-name="선 299" transform="translate(6.743 51.826)" style="stroke-linejoin:round;stroke-linecap:round;stroke:#ccc;stroke-width:3px;fill:none" d="M0 0h45.124"/>
        </g>
    </g>
</svg>
