<svg xmlns="http://www.w3.org/2000/svg" xmlns:xlink="http://www.w3.org/1999/xlink" width="993.817" height="406" viewBox="0 0 993.817 406">
  <defs>
    <style>
      .cls-1, .cls-7 {
        fill: none;
      }

      .cls-2 {
        opacity: 0.05;
      }

      .cls-3 {
        clip-path: url(#clip-path);
      }

      .cls-4 {
        fill: #265bfe;
      }

      .cls-5 {
        fill: #002087;
      }

      .cls-6 {
        fill: #080057;
      }

      .cls-7 {
        stroke: #080057;
        stroke-miterlimit: 10;
      }
    </style>
    <clipPath id="clip-path">
      <rect id="사각형_17847" data-name="사각형 17847" class="cls-1" width="993.817" height="406"/>
    </clipPath>
  </defs>
  <g id="iapps_logo_bg" class="cls-2">
    <g id="그룹_16480" data-name="그룹 16480" class="cls-3">
      <path id="패스_26455" data-name="패스 26455" class="cls-4" d="M121.365,56.2A56.2,56.2,0,1,1,65.169,0a56.2,56.2,0,0,1,56.2,56.2" transform="translate(28.616)"/>
      <path id="패스_26456" data-name="패스 26456" class="cls-5" d="M170.056,171.629l-37.238-30.2,12.677-14.587A59.074,59.074,0,0,0,62.1,43.548l.017-.1c-.1-.205-1.89,1.622-4.509,4.463-.448.478-.926.909-1.358,1.408l-1.446,1.668c-8.121,8.98-20.1,22.784-20.169,22.86C34.6,73.884,18.143,93.077,18.1,93.119c-1.911,1.743-20.995,19.8-17.726,46.67,1.349,11.08,6.982,23.224,20.261,35.348l32.825,26.241-.39.344L41,215.618a59.091,59.091,0,0,0,81.234,85.127c-.013.059-.008.117-.021.176l.8-.842a58.9,58.9,0,0,0,7.22-6.935l10.246-11.792,34.258-38.26s31.756-33.529-4.685-71.462" transform="translate(-0.002 92.532)"/>
      <path id="패스_26457" data-name="패스 26457" class="cls-4" d="M62.119,32.236c-.386-.821-27.381,30.285-27.482,30.4C34.6,62.677,18.143,81.869,18.1,81.911,16.194,83.65-2.894,101.716.375,128.578c1.349,11.084,6.982,23.228,20.261,35.352l70.1,56.041s37.858,36.383,31.475,69.744l12.626-13.267,39.9-44.563s31.756-33.529-4.685-71.462L92.329,97.387a41.272,41.272,0,0,1-3.805-3.508c-2.686-2.8-6.881-7.262-7.954-8.364C69.93,71.808,58.05,51.194,62.119,32.236" transform="translate(-0.002 102.801)"/>
      <path id="패스_26458" data-name="패스 26458" class="cls-6" d="M82.211,24.626h.281a13.5,13.5,0,0,1,0,27h-.281a13.5,13.5,0,0,1,0-27m-13.5,65.461H95.994V226.465H68.713Z" transform="translate(219.234 78.571)"/>
      <path id="패스_26459" data-name="패스 26459" class="cls-7" d="M82.211,24.626h.281a13.5,13.5,0,0,1,0,27h-.281a13.5,13.5,0,0,1,0-27Zm-13.5,65.461H95.994V226.465H68.713Z" transform="translate(219.234 78.571)"/>
      <rect id="사각형_17845" data-name="사각형 17845" class="cls-6" width="78.037" height="24.012" transform="translate(336.017 197.565)"/>
      <rect id="사각형_17846" data-name="사각형 17846" class="cls-7" width="78.037" height="24.012" transform="translate(336.017 197.565)"/>
      <path id="패스_26460" data-name="패스 26460" class="cls-6" d="M174.242,39.6a80.329,80.329,0,0,1,26.049,4.228,74.367,74.367,0,0,1,22.638,12.413q10.227,8.184,16.23,22.231t6,32.045V178.7H217.887V161.243a17.4,17.4,0,0,1-2.058,2.317q-1.49,1.515-5.582,4.911a57.362,57.362,0,0,1-9,6.139,60.5,60.5,0,0,1-12.412,4.911,55.046,55.046,0,0,1-15.4,2.183h-.281q-31.643,0-51.146-20.865t-19.49-50.6a76.376,76.376,0,0,1,4.362-25.5A73.4,73.4,0,0,1,119.689,62.1q8.455-10.227,22.5-16.364a77.777,77.777,0,0,1,31.5-6.143Zm0,24.553q-19.1,0-31.362,13.364-12.283,13.37-12.278,33t12.278,33q12.27,13.37,31.362,13.364t31.911-13.364q12.817-13.357,12.819-32.867,0-19.492-12.819-33-12.829-13.5-31.911-13.5" transform="translate(327.073 126.331)"/>
      <path id="패스_26461" data-name="패스 26461" class="cls-7" d="M174.242,39.6a80.329,80.329,0,0,1,26.049,4.228,74.367,74.367,0,0,1,22.638,12.413q10.227,8.184,16.23,22.231t6,32.045V178.7H217.887V161.243a17.4,17.4,0,0,1-2.058,2.317q-1.49,1.515-5.582,4.911a57.362,57.362,0,0,1-9,6.139,60.5,60.5,0,0,1-12.412,4.911,55.046,55.046,0,0,1-15.4,2.183h-.281q-31.643,0-51.146-20.865t-19.49-50.6a76.376,76.376,0,0,1,4.362-25.5A73.4,73.4,0,0,1,119.689,62.1q8.455-10.227,22.5-16.364a77.777,77.777,0,0,1,31.5-6.143Zm0,24.553q-19.1,0-31.362,13.364-12.283,13.37-12.278,33t12.278,33q12.27,13.37,31.362,13.364t31.911-13.364q12.817-13.357,12.819-32.867,0-19.492-12.819-33Q193.324,64.15,174.242,64.148Z" transform="translate(327.073 126.331)"/>
      <path id="패스_26462" data-name="패스 26462" class="cls-6" d="M213.325,39.6q31.913,0,51.414,19.78t19.5,51.138q0,30.273-17.734,50.731t-47.454,20.463q-31.907,0-47.186-16.913l-2.179-2.728v85.1H142.408V110.512q0-18,6.139-32.045T165.05,56.1a72.706,72.706,0,0,1,22.638-12.413,80.726,80.726,0,0,1,25.638-4.09m0,24.553q-19.1,0-31.911,13.5t-12.819,33q0,19.505,12.819,32.867t31.911,13.364q19.084,0,31.371-13.364,12.264-13.357,12.266-33,0-19.631-12.266-33-12.283-13.364-31.371-13.364" transform="translate(454.364 126.331)"/>
      <path id="패스_26463" data-name="패스 26463" class="cls-7" d="M213.325,39.6q31.913,0,51.414,19.78t19.5,51.138q0,30.273-17.734,50.731t-47.454,20.463q-31.907,0-47.186-16.913l-2.179-2.728v85.1H142.408V110.512q0-18,6.139-32.045T165.05,56.1a72.706,72.706,0,0,1,22.638-12.413A80.726,80.726,0,0,1,213.325,39.6Zm0,24.553q-19.1,0-31.911,13.5t-12.819,33q0,19.505,12.819,32.867t31.911,13.364q19.084,0,31.371-13.364,12.264-13.357,12.266-33,0-19.631-12.266-33Q232.413,64.148,213.325,64.148Z" transform="translate(454.364 126.331)"/>
      <path id="패스_26464" data-name="패스 26464" class="cls-6" d="M252.377,39.6q31.913,0,51.414,19.78t19.5,51.138q0,30.273-17.734,50.731t-47.454,20.463q-31.907,0-47.186-16.913l-2.179-2.728v85.1H181.46V110.512q0-18,6.139-32.045T204.1,56.1a72.706,72.706,0,0,1,22.638-12.413,80.726,80.726,0,0,1,25.638-4.09m0,24.553q-19.1,0-31.911,13.5t-12.819,33q0,19.505,12.819,32.867t31.911,13.364q19.084,0,31.371-13.364,12.264-13.357,12.266-33,0-19.631-12.266-33-12.283-13.364-31.371-13.364" transform="translate(578.962 126.331)"/>
      <path id="패스_26465" data-name="패스 26465" class="cls-7" d="M252.377,39.6q31.913,0,51.414,19.78t19.5,51.138q0,30.273-17.734,50.731t-47.454,20.463q-31.907,0-47.186-16.913l-2.179-2.728v85.1H181.46V110.512q0-18,6.139-32.045T204.1,56.1a72.706,72.706,0,0,1,22.638-12.413A80.726,80.726,0,0,1,252.377,39.6Zm0,24.553q-19.1,0-31.911,13.5t-12.819,33q0,19.505,12.819,32.867t31.911,13.364q19.084,0,31.371-13.364,12.264-13.357,12.266-33,0-19.631-12.266-33Q271.465,64.148,252.377,64.148Z" transform="translate(578.962 126.331)"/>
      <path id="패스_26466" data-name="패스 26466" class="cls-6" d="M290.734,40.247v24H262.908q-20.448,0-20.45,13.091V78.98q.541,4.086,6.273,8.591a104.994,104.994,0,0,0,13.5,8.863q7.776,4.362,15.69,9.819a47.958,47.958,0,0,1,13.225,13.774,33.454,33.454,0,0,1,5.318,18.409c0,1.643-.092,3.457-.272,5.456q-4.639,32.737-45.824,32.733H219.817v-24.28H252q8.731,0,14.323-3.679t5.586-9.408a12.8,12.8,0,0,0-.272-2.456q-1.094-4.633-7.095-9a117.942,117.942,0,0,0-13.636-8.457,174.66,174.66,0,0,1-15.132-9.135,45.282,45.282,0,0,1-12.689-12.953,32.133,32.133,0,0,1-5.18-18.007q0-18.267,13.23-28.634t31.769-10.367Z" transform="translate(695.259 128.411)"/>
      <path id="패스_26467" data-name="패스 26467" class="cls-7" d="M290.734,40.247v24H262.908q-20.448,0-20.45,13.091V78.98q.541,4.086,6.273,8.591a104.994,104.994,0,0,0,13.5,8.863q7.776,4.362,15.69,9.819a47.958,47.958,0,0,1,13.225,13.774,33.454,33.454,0,0,1,5.318,18.409c0,1.643-.092,3.457-.272,5.456q-4.639,32.737-45.824,32.733H219.817v-24.28H252q8.731,0,14.323-3.679t5.586-9.408a12.8,12.8,0,0,0-.272-2.456q-1.094-4.633-7.095-9a117.942,117.942,0,0,0-13.636-8.457,174.66,174.66,0,0,1-15.132-9.135,45.282,45.282,0,0,1-12.689-12.953,32.133,32.133,0,0,1-5.18-18.007q0-18.267,13.23-28.634t31.769-10.367Z" transform="translate(695.259 128.411)"/>
    </g>
  </g>
</svg>
