<svg xmlns="http://www.w3.org/2000/svg" xmlns:xlink="http://www.w3.org/1999/xlink" width="962.815" height="406" viewBox="0 0 962.815 406">
  <defs>
    <style>
      .cls-1, .cls-7 {
        fill: none;
      }

      .cls-2 {
        opacity: 0.05;
      }

      .cls-3 {
        clip-path: url(#clip-path);
      }

      .cls-4 {
        fill: #265bfe;
      }

      .cls-5 {
        fill: #002087;
      }

      .cls-6 {
        fill: #080057;
      }

      .cls-7 {
        stroke: #080057;
        stroke-miterlimit: 10;
      }
    </style>
    <clipPath id="clip-path">
      <rect id="사각형_17853" data-name="사각형 17853" class="cls-1" width="962.815" height="406"/>
    </clipPath>
  </defs>
  <g id="igent_logo_bg" class="cls-2">
    <g id="그룹_16484" data-name="그룹 16484" class="cls-3">
      <path id="패스_26481" data-name="패스 26481" class="cls-4" d="M121.365,56.2A56.2,56.2,0,1,1,65.169,0a56.2,56.2,0,0,1,56.2,56.2" transform="translate(28.616)"/>
      <path id="패스_26482" data-name="패스 26482" class="cls-5" d="M170.056,171.629l-37.238-30.2,12.677-14.587A59.074,59.074,0,0,0,62.1,43.548l.017-.1c-.1-.205-1.89,1.622-4.509,4.463-.448.478-.926.909-1.358,1.408l-1.446,1.668c-8.121,8.98-20.1,22.784-20.169,22.86C34.6,73.884,18.143,93.077,18.1,93.119c-1.911,1.743-20.995,19.8-17.726,46.67,1.349,11.08,6.982,23.224,20.261,35.348l32.825,26.241-.39.344L41,215.618a59.091,59.091,0,0,0,81.234,85.127c-.013.059-.008.117-.021.176l.8-.842a58.9,58.9,0,0,0,7.22-6.935l10.246-11.792,34.258-38.26s31.756-33.529-4.685-71.462" transform="translate(-0.002 92.532)"/>
      <path id="패스_26483" data-name="패스 26483" class="cls-4" d="M62.119,32.236c-.386-.821-27.381,30.285-27.482,30.4C34.6,62.677,18.143,81.869,18.1,81.911,16.194,83.65-2.894,101.716.375,128.578c1.349,11.084,6.982,23.228,20.261,35.352l70.1,56.041s37.858,36.383,31.475,69.744l12.626-13.267,39.9-44.563s31.756-33.529-4.685-71.462L92.329,97.387a41.272,41.272,0,0,1-3.805-3.508c-2.686-2.8-6.881-7.262-7.954-8.364C69.93,71.808,58.05,51.194,62.119,32.236" transform="translate(-0.002 102.801)"/>
      <path id="패스_26484" data-name="패스 26484" class="cls-6" d="M79.745,23.849h.281a13.5,13.5,0,0,1,0,27h-.281a13.5,13.5,0,0,1,0-27m-13.5,65.457H93.528V225.684H66.247Z" transform="translate(211.366 76.092)"/>
      <path id="패스_26485" data-name="패스 26485" class="cls-7" d="M79.745,23.849h.281a13.5,13.5,0,0,1,0,27h-.281a13.5,13.5,0,0,1,0-27Zm-13.5,65.457H93.528V225.684H66.247Z" transform="translate(211.366 76.092)"/>
      <rect id="사각형_17851" data-name="사각형 17851" class="cls-6" width="78.037" height="24.012" transform="translate(325.683 198.244)"/>
      <rect id="사각형_17852" data-name="사각형 17852" class="cls-7" width="78.037" height="24.012" transform="translate(325.683 198.244)"/>
      <path id="패스_26486" data-name="패스 26486" class="cls-6" d="M171.283,39.318a79.632,79.632,0,0,1,24.959,4.476A83.071,83.071,0,0,1,218.762,56q10.585,8,16.825,21.975t6.236,31.878V176.6q0,5.695-.545,11.26a77.1,77.1,0,0,1-2.573,12.886,71.522,71.522,0,0,1-5.427,13.837,61.892,61.892,0,0,1-9.358,13.02A56.742,56.742,0,0,1,210.084,238.6a79.212,79.212,0,0,1-19.813,7.459,108.624,108.624,0,0,1-26.317,2.984,70.865,70.865,0,0,1-18.715-2.439,66.625,66.625,0,0,1-14.793-5.7,79.1,79.1,0,0,1-10.171-6.646,36.949,36.949,0,0,1-6.244-5.833l-1.894-2.171L130.588,207.8c.36.36.851.905,1.492,1.63a44.008,44.008,0,0,0,4.471,3.935,51.15,51.15,0,0,0,7.459,5.016,47.82,47.82,0,0,0,10.451,3.935,51.523,51.523,0,0,0,13.565,1.764,8.9,8.9,0,0,0,2.166-.272q44.5-1.628,44.5-43.138V160.321a20.153,20.153,0,0,1-1.764,2.171,64.1,64.1,0,0,1-5.427,4.882,64.885,64.885,0,0,1-8.817,6.244,54.682,54.682,0,0,1-11.8,4.882,50.018,50.018,0,0,1-14.516,2.171h-1.085q-32.831-.547-51.682-20.622t-18.858-50.191q0-31.2,19.532-50.869t51.008-19.671m0,24.419q-18.99,0-31.2,13.293t-12.211,32.829q0,19.536,12.211,32.829t31.2,13.293q18.983,0,31.739-13.293T215.774,110q0-19.4-12.752-32.829T171.283,63.736" transform="translate(321.428 125.447)"/>
      <path id="패스_26487" data-name="패스 26487" class="cls-7" d="M171.283,39.318a79.632,79.632,0,0,1,24.959,4.476A83.071,83.071,0,0,1,218.762,56q10.585,8,16.825,21.975t6.236,31.878V176.6q0,5.695-.545,11.26a77.1,77.1,0,0,1-2.573,12.886,71.522,71.522,0,0,1-5.427,13.837,61.892,61.892,0,0,1-9.358,13.02A56.742,56.742,0,0,1,210.084,238.6a79.212,79.212,0,0,1-19.813,7.459,108.624,108.624,0,0,1-26.317,2.984,70.865,70.865,0,0,1-18.715-2.439,66.625,66.625,0,0,1-14.793-5.7,79.1,79.1,0,0,1-10.171-6.646,36.949,36.949,0,0,1-6.244-5.833l-1.894-2.171L130.588,207.8c.36.36.851.905,1.492,1.63a44.008,44.008,0,0,0,4.471,3.935,51.15,51.15,0,0,0,7.459,5.016,47.82,47.82,0,0,0,10.451,3.935,51.523,51.523,0,0,0,13.565,1.764,8.9,8.9,0,0,0,2.166-.272q44.5-1.628,44.5-43.138V160.321a20.153,20.153,0,0,1-1.764,2.171,64.1,64.1,0,0,1-5.427,4.882,64.885,64.885,0,0,1-8.817,6.244,54.682,54.682,0,0,1-11.8,4.882,50.018,50.018,0,0,1-14.516,2.171h-1.085q-32.831-.547-51.682-20.622t-18.858-50.191q0-31.2,19.532-50.869T171.283,39.318Zm0,24.419q-18.99,0-31.2,13.293t-12.211,32.829q0,19.536,12.211,32.829t31.2,13.293q18.983,0,31.739-13.293T215.774,110q0-19.4-12.752-32.829T171.283,63.736Z" transform="translate(321.428 125.447)"/>
      <path id="패스_26488" data-name="패스 26488" class="cls-6" d="M166.074,116.911a45.862,45.862,0,0,0,14.105,27.54q11.666,10.988,28.488,10.988,21.429,0,33.374-16.28l18.447,18.451a67.94,67.94,0,0,1-23.195,16.821,69.737,69.737,0,0,1-28.626,5.967q-29.034,0-49.378-20.618T138.94,109.858q0-29.3,20.349-49.922t49.378-20.618q29.028,0,48.975,20.618t19.939,49.922q0,2.715-.272,7.053-22.246-.264-46.934-.272-23.6,0-64.3.272m42.593-51.276q-15.2,0-26.044,7.732a39.078,39.078,0,0,0-14.923,21.3h81.121q-4.067-13.559-14.516-21.3t-25.638-7.732" transform="translate(443.299 125.447)"/>
      <path id="패스_26489" data-name="패스 26489" class="cls-7" d="M166.074,116.911a45.862,45.862,0,0,0,14.105,27.54q11.666,10.988,28.488,10.988,21.429,0,33.374-16.28l18.447,18.451a67.94,67.94,0,0,1-23.195,16.821,69.737,69.737,0,0,1-28.626,5.967q-29.034,0-49.378-20.618T138.94,109.858q0-29.3,20.349-49.922t49.378-20.618q29.028,0,48.975,20.618t19.939,49.922q0,2.715-.272,7.053-22.246-.264-46.934-.272Q206.771,116.638,166.074,116.911Zm42.593-51.276q-15.2,0-26.044,7.732a39.078,39.078,0,0,0-14.923,21.3h81.121q-4.067-13.559-14.516-21.3T208.667,65.635Z" transform="translate(443.299 125.447)"/>
      <path id="패스_26490" data-name="패스 26490" class="cls-6" d="M304.991,178.269H277.856V110.985q0-22.793-9.9-35.134T239.6,63.506q-17.9,0-27.264,12.207t-9.357,35.544v67.284l-25.776-.272V103.387q0-26.86,17.5-45.17T242.32,39.9q4.331,0,8.406.272a74.057,74.057,0,0,1,10.715,1.764,66.483,66.483,0,0,1,12.207,3.935,55.847,55.847,0,0,1,11.671,7.187,43.111,43.111,0,0,1,10.17,11.26,61.811,61.811,0,0,1,6.789,16.549,86.662,86.662,0,0,1,2.711,22.52Z" transform="translate(565.38 127.304)"/>
      <path id="패스_26491" data-name="패스 26491" class="cls-7" d="M304.991,178.269H277.856V110.985q0-22.793-9.9-35.134T239.6,63.506q-17.9,0-27.264,12.207t-9.357,35.544v67.284l-25.776-.272V103.387q0-26.86,17.5-45.17T242.32,39.9q4.331,0,8.406.272a74.057,74.057,0,0,1,10.715,1.764,66.483,66.483,0,0,1,12.207,3.935,55.847,55.847,0,0,1,11.671,7.187,43.111,43.111,0,0,1,10.17,11.26,61.811,61.811,0,0,1,6.789,16.549,86.662,86.662,0,0,1,2.711,22.52Z" transform="translate(565.38 127.304)"/>
      <path id="패스_26492" data-name="패스 26492" class="cls-6" d="M212.424,27.664h27.13V81.928h36.9v23.061h-36.9v44.764q0,19.272,12.073,31.065t31.337,11.8v24.959q-29.3,0-49.922-19.4t-20.618-48.431Z" transform="translate(677.755 88.264)"/>
      <path id="패스_26493" data-name="패스 26493" class="cls-7" d="M212.424,27.664h27.13V81.928h36.9v23.061h-36.9v44.764q0,19.272,12.073,31.065t31.337,11.8v24.959q-29.3,0-49.922-19.4t-20.618-48.431Z" transform="translate(677.755 88.264)"/>
    </g>
  </g>
</svg>
