<svg xmlns="http://www.w3.org/2000/svg" xmlns:xlink="http://www.w3.org/1999/xlink" width="1194.554" height="406" viewBox="0 0 1194.554 406">
  <defs>
    <style>
      .cls-1, .cls-7 {
        fill: none;
      }

      .cls-2 {
        opacity: 0.05;
      }

      .cls-3 {
        clip-path: url(#clip-path);
      }

      .cls-4 {
        fill: #265bfe;
      }

      .cls-5 {
        fill: #002087;
      }

      .cls-6 {
        fill: #080057;
      }

      .cls-7 {
        stroke: #080057;
        stroke-miterlimit: 10;
      }
    </style>
    <clipPath id="clip-path">
      <rect id="사각형_17856" data-name="사각형 17856" class="cls-1" width="1194.554" height="406"/>
    </clipPath>
  </defs>
  <g id="ireview_logo_bg" class="cls-2">
    <g id="그룹_16486" data-name="그룹 16486" class="cls-3">
      <path id="패스_26494" data-name="패스 26494" class="cls-4" d="M121.365,56.2A56.2,56.2,0,1,1,65.169,0a56.2,56.2,0,0,1,56.2,56.2" transform="translate(28.616)"/>
      <path id="패스_26495" data-name="패스 26495" class="cls-5" d="M170.056,171.629l-37.238-30.2,12.677-14.587A59.074,59.074,0,0,0,62.1,43.548l.017-.1c-.1-.205-1.89,1.622-4.509,4.463-.448.478-.926.909-1.358,1.408l-1.446,1.668c-8.121,8.98-20.1,22.784-20.169,22.86C34.6,73.884,18.143,93.077,18.1,93.119c-1.911,1.743-20.995,19.8-17.726,46.67,1.349,11.08,6.982,23.224,20.261,35.348l32.825,26.241-.39.344L41,215.618a59.091,59.091,0,0,0,81.234,85.127c-.013.059-.008.117-.021.176l.8-.842a58.9,58.9,0,0,0,7.22-6.935l10.246-11.792,34.258-38.26s31.756-33.529-4.685-71.462" transform="translate(-0.002 92.532)"/>
      <path id="패스_26496" data-name="패스 26496" class="cls-4" d="M62.119,32.236c-.386-.821-27.381,30.285-27.482,30.4C34.6,62.677,18.143,81.869,18.1,81.911,16.194,83.65-2.894,101.716.375,128.578c1.349,11.084,6.982,23.228,20.261,35.352l70.1,56.041s37.858,36.383,31.475,69.744l12.626-13.267,39.9-44.563s31.756-33.529-4.685-71.462L92.329,97.387a41.272,41.272,0,0,1-3.805-3.508c-2.686-2.8-6.881-7.262-7.954-8.364C69.93,71.808,58.05,51.194,62.119,32.236" transform="translate(-0.002 102.801)"/>
      <path id="패스_26497" data-name="패스 26497" class="cls-6" d="M79.745,23.99h.281a13.5,13.5,0,0,1,0,27h-.281a13.5,13.5,0,0,1,0-27m-13.5,65.461H93.528V225.829H66.247Z" transform="translate(211.366 76.542)"/>
      <path id="패스_26498" data-name="패스 26498" class="cls-7" d="M79.745,23.99h.281a13.5,13.5,0,0,1,0,27h-.281a13.5,13.5,0,0,1,0-27Zm-13.5,65.461H93.528V225.829H66.247Z" transform="translate(211.366 76.542)"/>
      <rect id="사각형_17854" data-name="사각형 17854" class="cls-6" width="78.037" height="24.012" transform="translate(325.683 198.839)"/>
      <rect id="사각형_17855" data-name="사각형 17855" class="cls-7" width="78.037" height="24.012" transform="translate(325.683 198.839)"/>
      <path id="패스_26499" data-name="패스 26499" class="cls-6" d="M171.72,39.439V70.386q-19.109,0-31.077,10.761T128.67,109.4v67.271H101.762V109.4q0-32.284,19.235-51.125T171.72,39.439" transform="translate(324.68 125.833)"/>
      <path id="패스_26500" data-name="패스 26500" class="cls-7" d="M171.72,39.439V70.386q-19.109,0-31.077,10.761T128.67,109.4v67.271H101.762V109.4q0-32.284,19.235-51.125T171.72,39.439Z" transform="translate(324.68 125.833)"/>
      <path id="패스_26501" data-name="패스 26501" class="cls-6" d="M147.291,116.463a45.473,45.473,0,0,0,13.992,27.31q11.566,10.906,28.253,10.9,21.253,0,33.1-16.146l18.3,18.3a67.407,67.407,0,0,1-23.01,16.683,69.159,69.159,0,0,1-28.387,5.921q-28.8,0-48.975-20.454t-20.178-49.507q0-29.066,20.178-49.516T189.536,39.5q28.789,0,48.573,20.45t19.775,49.516q0,2.69-.268,6.994-22.07-.264-46.553-.268-23.409,0-63.772.268m42.245-50.857q-15.067,0-25.831,7.669A38.745,38.745,0,0,0,148.9,94.4h80.459q-4.042-13.458-14.4-21.125t-25.428-7.669" transform="translate(384.091 126.037)"/>
      <path id="패스_26502" data-name="패스 26502" class="cls-7" d="M147.291,116.463a45.473,45.473,0,0,0,13.992,27.31q11.566,10.906,28.253,10.9,21.253,0,33.1-16.146l18.3,18.3a67.407,67.407,0,0,1-23.01,16.683,69.159,69.159,0,0,1-28.387,5.921q-28.8,0-48.975-20.454t-20.178-49.507q0-29.066,20.178-49.516T189.536,39.5q28.789,0,48.573,20.45t19.775,49.516q0,2.69-.268,6.994-22.07-.264-46.553-.268Q187.654,116.195,147.291,116.463Zm42.245-50.857q-15.067,0-25.831,7.669A38.745,38.745,0,0,0,148.9,94.4h80.459q-4.042-13.458-14.4-21.125T189.536,65.606Z" transform="translate(384.091 126.037)"/>
      <path id="패스_26503" data-name="패스 26503" class="cls-6" d="M155.637,40.209H183.89l40.632,106.826h.809L265.962,40.209h26.1L240.932,174.752h-34.17Z" transform="translate(496.572 128.29)"/>
      <path id="패스_26504" data-name="패스 26504" class="cls-7" d="M155.637,40.209H183.89l40.632,106.826h.809L265.962,40.209h26.1L240.932,174.752h-34.17Z" transform="translate(496.572 128.29)"/>
      <path id="패스_26505" data-name="패스 26505" class="cls-6" d="M192.816,24.735h26.908V51.37H192.816Zm0,64.577h26.908V223.854H192.816Z" transform="translate(615.195 78.919)"/>
      <path id="패스_26506" data-name="패스 26506" class="cls-7" d="M192.816,24.735h26.908V51.37H192.816Zm0,64.577h26.908V223.854H192.816Z" transform="translate(615.195 78.919)"/>
      <path id="패스_26507" data-name="패스 26507" class="cls-6" d="M231.281,116.463a45.473,45.473,0,0,0,13.992,27.31q11.566,10.906,28.253,10.9,21.252,0,33.1-16.146l18.3,18.3a67.408,67.408,0,0,1-23.01,16.683,69.159,69.159,0,0,1-28.387,5.921q-28.8,0-48.975-20.454t-20.178-49.507q0-29.066,20.178-49.516T273.526,39.5q28.789,0,48.573,20.45t19.775,49.516q0,2.69-.268,6.994-22.07-.264-46.553-.268-23.409,0-63.772.268m42.245-50.857q-15.067,0-25.831,7.669a38.746,38.746,0,0,0-14.8,21.125h80.459q-4.042-13.458-14.4-21.125t-25.428-7.669" transform="translate(652.068 126.037)"/>
      <path id="패스_26508" data-name="패스 26508" class="cls-7" d="M231.281,116.463a45.473,45.473,0,0,0,13.992,27.31q11.566,10.906,28.253,10.9,21.252,0,33.1-16.146l18.3,18.3a67.408,67.408,0,0,1-23.01,16.683,69.159,69.159,0,0,1-28.387,5.921q-28.8,0-48.975-20.454t-20.178-49.507q0-29.066,20.178-49.516T273.526,39.5q28.789,0,48.573,20.45t19.775,49.516q0,2.69-.268,6.994-22.07-.264-46.553-.268Q271.644,116.195,231.281,116.463Zm42.245-50.857q-15.067,0-25.831,7.669a38.746,38.746,0,0,0-14.8,21.125h80.459q-4.042-13.458-14.4-21.125T273.526,65.606Z" transform="translate(652.068 126.037)"/>
      <path id="패스_26509" data-name="패스 26509" class="cls-6" d="M239.883,40.209h26.908l23.14,106.826h.541L318.724,40.209h31.756l31.752,106.826h.536L402.41,40.209h24.217l-26.9,134.274H365.278L334.6,67.926h-1.077L305.809,174.484H270.022Z" transform="translate(765.366 128.29)"/>
      <path id="패스_26510" data-name="패스 26510" class="cls-7" d="M239.883,40.209h26.908l23.14,106.826h.541L318.724,40.209h31.756l31.752,106.826h.536L402.41,40.209h24.217l-26.9,134.274H365.278L334.6,67.926h-1.077L305.809,174.484H270.022Z" transform="translate(765.366 128.29)"/>
    </g>
  </g>
</svg>
