<svg xmlns="http://www.w3.org/2000/svg" xmlns:xlink="http://www.w3.org/1999/xlink" width="959.441" height="406" viewBox="0 0 959.441 406">
  <defs>
    <style>
      .cls-1, .cls-7 {
        fill: none;
      }

      .cls-2 {
        opacity: 0.05;
      }

      .cls-3 {
        clip-path: url(#clip-path);
      }

      .cls-4 {
        fill: #265bfe;
      }

      .cls-5 {
        fill: #002087;
      }

      .cls-6 {
        fill: #080057;
      }

      .cls-7 {
        stroke: #080057;
        stroke-miterlimit: 10;
      }
    </style>
    <clipPath id="clip-path">
      <rect id="사각형_17850" data-name="사각형 17850" class="cls-1" width="959.441" height="406"/>
    </clipPath>
  </defs>
  <g id="isend_logo_bg" class="cls-2">
    <g id="그룹_16482" data-name="그룹 16482" class="cls-3">
      <path id="패스_26468" data-name="패스 26468" class="cls-4" d="M121.365,56.2A56.2,56.2,0,1,1,65.169,0a56.2,56.2,0,0,1,56.2,56.2" transform="translate(28.616)"/>
      <path id="패스_26469" data-name="패스 26469" class="cls-5" d="M170.056,171.629l-37.238-30.2,12.677-14.587A59.074,59.074,0,0,0,62.1,43.548l.017-.1c-.1-.205-1.89,1.622-4.509,4.463-.448.478-.926.909-1.358,1.408l-1.446,1.668c-8.121,8.98-20.1,22.784-20.169,22.86C34.6,73.884,18.143,93.077,18.1,93.119c-1.911,1.743-20.995,19.8-17.726,46.67,1.349,11.08,6.982,23.224,20.261,35.348l32.825,26.241-.39.344L41,215.618a59.091,59.091,0,0,0,81.234,85.127c-.013.059-.008.117-.021.176l.8-.842a58.9,58.9,0,0,0,7.22-6.935l10.246-11.792,34.258-38.26s31.756-33.529-4.685-71.462" transform="translate(-0.002 92.532)"/>
      <path id="패스_26470" data-name="패스 26470" class="cls-4" d="M62.119,32.236c-.386-.821-27.381,30.285-27.482,30.4C34.6,62.677,18.143,81.869,18.1,81.911,16.194,83.65-2.894,101.716.375,128.578c1.349,11.084,6.982,23.228,20.261,35.352l70.1,56.041s37.858,36.383,31.475,69.744l12.626-13.267,39.9-44.563s31.756-33.529-4.685-71.462L92.329,97.387a41.272,41.272,0,0,1-3.805-3.508c-2.686-2.8-6.881-7.262-7.954-8.364C69.93,71.808,58.05,51.194,62.119,32.236" transform="translate(-0.002 102.801)"/>
      <path id="패스_26471" data-name="패스 26471" class="cls-6" d="M172.475,40.718V64.55H144.842q-20.31,0-20.312,13v1.626q.541,4.061,6.227,8.532a105.031,105.031,0,0,0,13.406,8.8q7.725,4.337,15.576,9.751a47.523,47.523,0,0,1,13.137,13.678,33.27,33.27,0,0,1,5.284,18.284c0,1.626-.1,3.432-.277,5.418q-4.6,32.5-45.5,32.5h-30.34V152.036H134.01q8.662,0,14.223-3.654t5.548-9.345a12.637,12.637,0,0,0-.268-2.439q-1.081-4.6-7.04-8.934a117.49,117.49,0,0,0-13.548-8.4,175.444,175.444,0,0,1-15.027-9.073,44.883,44.883,0,0,1-12.6-12.869,31.864,31.864,0,0,1-5.146-17.873q0-18.147,13.137-28.441t31.551-10.292Z" transform="translate(319.549 129.914)"/>
      <path id="패스_26472" data-name="패스 26472" class="cls-7" d="M172.475,40.718V64.55H144.842q-20.31,0-20.312,13v1.626q.541,4.061,6.227,8.532a105.031,105.031,0,0,0,13.406,8.8q7.725,4.337,15.576,9.751a47.523,47.523,0,0,1,13.137,13.678,33.27,33.27,0,0,1,5.284,18.284c0,1.626-.1,3.432-.277,5.418q-4.6,32.5-45.5,32.5h-30.34V152.036H134.01q8.662,0,14.223-3.654t5.548-9.345a12.637,12.637,0,0,0-.268-2.439q-1.081-4.6-7.04-8.934a117.49,117.49,0,0,0-13.548-8.4,175.444,175.444,0,0,1-15.027-9.073,44.883,44.883,0,0,1-12.6-12.869,31.864,31.864,0,0,1-5.146-17.873q0-18.147,13.137-28.441t31.551-10.292Z" transform="translate(319.549 129.914)"/>
      <path id="패스_26473" data-name="패스 26473" class="cls-6" d="M148.115,116.892a45.752,45.752,0,0,0,14.085,27.49q11.635,10.969,28.437,10.971,21.391,0,33.315-16.251l18.422,18.418a67.866,67.866,0,0,1-23.161,16.792,69.55,69.55,0,0,1-28.576,5.959q-28.984,0-49.3-20.584t-20.307-49.839q0-29.248,20.307-49.834t49.3-20.588q28.978,0,48.891,20.588t19.905,49.834q0,2.709-.268,7.044-22.214-.27-46.859-.272-23.566,0-64.191.272M190.637,65.7q-15.168,0-26,7.719a39.034,39.034,0,0,0-14.9,21.263h80.987q-4.061-13.54-14.491-21.263t-25.6-7.719" transform="translate(386.159 125.789)"/>
      <path id="패스_26474" data-name="패스 26474" class="cls-7" d="M148.115,116.892a45.752,45.752,0,0,0,14.085,27.49q11.635,10.969,28.437,10.971,21.391,0,33.315-16.251l18.422,18.418a67.866,67.866,0,0,1-23.161,16.792,69.55,69.55,0,0,1-28.576,5.959q-28.984,0-49.3-20.584t-20.307-49.839q0-29.248,20.307-49.834t49.3-20.588q28.978,0,48.891,20.588t19.905,49.834q0,2.709-.268,7.044-22.214-.27-46.859-.272Q188.74,116.62,148.115,116.892ZM190.637,65.7q-15.168,0-26,7.719a39.034,39.034,0,0,0-14.9,21.263h80.987q-4.061-13.54-14.491-21.263T190.637,65.7Z" transform="translate(386.159 125.789)"/>
      <path id="패스_26475" data-name="패스 26475" class="cls-6" d="M286.8,178.145H259.715V110.974q0-22.755-9.885-35.075t-28.3-12.324q-17.877,0-27.222,12.186t-9.345,35.482v67.171l-25.73-.268V103.389q0-26.815,17.47-45.1t47.534-18.283c2.887,0,5.691.1,8.4.272a75.07,75.07,0,0,1,10.7,1.76,66.462,66.462,0,0,1,12.186,3.927,56.052,56.052,0,0,1,11.646,7.178,42.929,42.929,0,0,1,10.158,11.243A61.654,61.654,0,0,1,284.1,80.907a86.57,86.57,0,0,1,2.707,22.482Z" transform="translate(508.033 127.645)"/>
      <path id="패스_26476" data-name="패스 26476" class="cls-7" d="M286.8,178.145H259.715V110.974q0-22.755-9.885-35.075t-28.3-12.324q-17.877,0-27.222,12.186t-9.345,35.482v67.171l-25.73-.268V103.389q0-26.815,17.47-45.1t47.534-18.283c2.887,0,5.691.1,8.4.272a75.07,75.07,0,0,1,10.7,1.76,66.462,66.462,0,0,1,12.186,3.927,56.052,56.052,0,0,1,11.646,7.178,42.929,42.929,0,0,1,10.158,11.243A61.654,61.654,0,0,1,284.1,80.907a86.57,86.57,0,0,1,2.707,22.482Z" transform="translate(508.033 127.645)"/>
      <path id="패스_26477" data-name="패스 26477" class="cls-6" d="M265.269,229.97q-31.423,0-50.92-19.637t-19.507-50.786q0-30.876,17.068-50.652t49.834-20.039h.545a68.488,68.488,0,0,1,16.926,2.028A51.865,51.865,0,0,1,292.352,95.9a76.856,76.856,0,0,1,9.077,6.093A43.3,43.3,0,0,1,306.978,107l1.626,2.167V23.848h27.088v135.7q0,17.877-6.093,31.823t-16.389,22.214a72.108,72.108,0,0,1-22.482,12.324,80.009,80.009,0,0,1-25.458,4.061m0-24.377q18.958,0,31.689-13.41t12.731-32.775q0-19.36-12.731-32.636T265.269,113.5q-18.965,0-31.153,13.272T221.93,159.547q0,19.5,12.186,32.775t31.153,13.272" transform="translate(621.659 76.089)"/>
      <path id="패스_26478" data-name="패스 26478" class="cls-7" d="M265.269,229.97q-31.423,0-50.92-19.637t-19.507-50.786q0-30.876,17.068-50.652t49.834-20.039h.545a68.488,68.488,0,0,1,16.926,2.028A51.865,51.865,0,0,1,292.352,95.9a76.856,76.856,0,0,1,9.077,6.093A43.3,43.3,0,0,1,306.978,107l1.626,2.167V23.848h27.088v135.7q0,17.877-6.093,31.823t-16.389,22.214a72.108,72.108,0,0,1-22.482,12.324A80.009,80.009,0,0,1,265.269,229.97Zm0-24.377q18.958,0,31.689-13.41t12.731-32.775q0-19.36-12.731-32.636T265.269,113.5q-18.965,0-31.153,13.272T221.93,159.547q0,19.5,12.186,32.775T265.269,205.593Z" transform="translate(621.659 76.089)"/>
      <path id="패스_26479" data-name="패스 26479" class="cls-6" d="M79.48,24.871h.281a13.5,13.5,0,0,1,0,27H79.48a13.5,13.5,0,1,1,0-27m-13.5,65.461H93.259V226.71H65.978Z" transform="translate(210.508 79.353)"/>
      <path id="패스_26480" data-name="패스 26480" class="cls-7" d="M79.48,24.871h.281a13.5,13.5,0,0,1,0,27H79.48a13.5,13.5,0,1,1,0-27Zm-13.5,65.461H93.259V226.71H65.978Z" transform="translate(210.508 79.353)"/>
      <rect id="사각형_17848" data-name="사각형 17848" class="cls-6" width="78.037" height="24.012" transform="translate(324.56 198.244)"/>
      <rect id="사각형_17849" data-name="사각형 17849" class="cls-7" width="78.037" height="24.012" transform="translate(324.56 198.244)"/>
    </g>
  </g>
</svg>
