<svg xmlns="http://www.w3.org/2000/svg" width="19.945" height="21.5" viewBox="0 0 19.945 21.5">
    <path data-name="btn_setting" d="m7.49 3.192.662-1.708A1.538 1.538 0 0 1 9.583.5h1.262a1.538 1.538 0 0 1 1.431.985l.662 1.708 2.246 1.292L17 4.208a1.538 1.538 0 0 1 1.538.754l.615 1.077a1.538 1.538 0 0 1-.123 1.738l-1.124 1.431v2.585l1.154 1.431a1.538 1.538 0 0 1 .123 1.738l-.615 1.077a1.538 1.538 0 0 1-1.538.754l-1.815-.277-2.246 1.292-.662 1.708a1.538 1.538 0 0 1-1.431.985H9.583a1.538 1.538 0 0 1-1.431-.985l-.662-1.708-2.246-1.293-1.815.277a1.538 1.538 0 0 1-1.538-.754l-.615-1.077a1.538 1.538 0 0 1 .124-1.738l1.123-1.431V9.208L1.367 7.777a1.538 1.538 0 0 1-.123-1.738l.616-1.077a1.538 1.538 0 0 1 1.54-.754l1.815.277zM7.137 10.5a3.077 3.077 0 1 0 3.077-3.077A3.077 3.077 0 0 0 7.137 10.5z" transform="translate(-.241 .25)" style="fill:none;stroke:#000;stroke-linecap:round;stroke-linejoin:round;stroke-width:1.5px"/>
</svg>
