<svg xmlns="http://www.w3.org/2000/svg" width="22" height="22" viewBox="0 0 22 22">
    <g data-name="icon_menu_campaign_detail_off">
        <path data-name="패스 977" d="M78.5 0h-13A1.5 1.5 0 0 0 64 1.5V12h16V1.5A1.5 1.5 0 0 0 78.5 0zM78 10H66V2h12z" transform="translate(-61 3)" style="fill:#fff"/>
        <path data-name="패스 978" d="M16 64H4v8h12z" transform="translate(1 -59)" style="opacity:.35;fill:#fff"/>
        <path data-name="패스 981" d="M19.5 75h-7.577a.985.985 0 0 1-1.023 1H9a1.062 1.062 0 0 1-1.024-1H.5a.5.5 0 0 0-.5.5v.5a2.006 2.006 0 0 0 2 2h16a2.006 2.006 0 0 0 2-2v-.5a.5.5 0 0 0-.5-.5z" transform="translate(1 -59)" style="fill:#fff"/>
    </g>
</svg>
