<svg xmlns="http://www.w3.org/2000/svg" width="140" height="27.268" viewBox="0 0 140 27.268">
    <path data-name="패스 351" d="M81.1 1.261H68.356a3.52 3.52 0 0 0-3.514 3.518v18.969a3.521 3.521 0 0 0 3.514 3.519H81.1a6.044 6.044 0 0 0 6.035-6.041V7.3A6.044 6.044 0 0 0 81.1 1.261zm-10.22 10.2V7.979a.317.317 0 0 1 .317-.316h9.583a.317.317 0 0 1 .317.316v3.476a.317.317 0 0 1-.317.315h-9.583a.317.317 0 0 1-.317-.311zm0 5.736a.317.317 0 0 1 .317-.316h9.583a.317.317 0 0 1 .317.316v3.475a.317.317 0 0 1-.317.316h-9.583a.317.317 0 0 1-.317-.316z"/>
    <path data-name="패스 352" d="M55.358 1.261H45.119a6.044 6.044 0 0 0-6.026 6.049v13.909a6.044 6.044 0 0 0 6.026 6.049h10.239a6.045 6.045 0 0 0 6.027-6.049V7.31a6.044 6.044 0 0 0-6.027-6.049zm-9.736 6.7a.316.316 0 0 1 .316-.317h8.6a.317.317 0 0 1 .316.317v12.611a.318.318 0 0 1-.316.317h-8.6a.317.317 0 0 1-.316-.317z"/>
    <path data-name="패스 353" d="M124.212 27.268V8.055a.318.318 0 0 1 .32-.315h8.645a.318.318 0 0 1 .32.315v19.213h6.5V7.299a6.053 6.053 0 0 0-6.056-6.038h-12.71a3.525 3.525 0 0 0-3.526 3.517v22.49z"/>
    <path data-name="패스 354" d="m2010.151-464.188-2.057-13.591-4.115 13.82c-.8 2.043-2.041 2.672-5.109 2.672h-2.17l-3.421-16.492-4.239 14.145c-.958 2.216-2.178 2.346-3.944 2.346h-3.652l9.967-27.255c4.474 0 6.458 1.152 6.927 4.279l2.539 12.037 5.345-16.317c4.759 0 6.555 1.918 6.921 4.241l3.5 23.014h-2.273c-1.477.002-3.607.375-4.219-2.899z" transform="translate(-1981.449 488.542)" style="fill:#80af4d"/>
    <g data-name="그룹 1118" transform="translate(91.147 .547)">
        <rect data-name="사각형 1307" width="4.078" height="7.476" rx="1" transform="translate(9.107)" style="fill:#80af4d"/>
        <path data-name="패스 355" d="M16.267.714h-1.7v6.381h.875a.316.316 0 0 1 .316.317v12.611a.317.317 0 0 1-.316.317h-8.6a.318.318 0 0 1-.317-.317V7.412a.317.317 0 0 1 .317-.317h.876V.714h-1.7A6.044 6.044 0 0 0-.008 6.763v13.909a6.045 6.045 0 0 0 6.026 6.049h10.24a6.045 6.045 0 0 0 6.026-6.049V6.763A6.044 6.044 0 0 0 16.267.714z"/>
    </g>
</svg>
