<svg xmlns="http://www.w3.org/2000/svg" width="176.841" height="38" viewBox="0 0 176.841 38">
    <defs>
        <clipPath id="im3192e5da">
            <path data-name="사각형 2894" style="fill:none" d="M0 0h176.841v38H0z"/>
        </clipPath>
    </defs>
    <g data-name="그룹 4118" style="clip-path:url(#im3192e5da)">
        <path data-name="패스 11350" d="M40 33.938 37.133 15 31.4 34.259c-1.114 2.847-2.844 3.723-7.119 3.723H21.26L16.493 15l-5.907 19.712c-1.334 3.089-3.036 3.27-5.5 3.27H0L13.891 0c6.236 0 9 1.605 9.653 5.964l3.537 16.774L34.53 0c6.631 0 9.135 2.672 9.645 5.91l4.884 32.072h-3.168c-2.072 0-5.04.52-5.891-4.043" style="fill:#84b64d"/>
        <path data-name="패스 11351" d="M107.976 34.545a7.1 7.1 0 0 1-2.217 5.533 8.181 8.181 0 0 1-5.728 2.017H87.393a8.179 8.179 0 0 1-5.727-2.017 7.1 7.1 0 0 1-2.217-5.533V19.258q0-3.711 2.106-5.292 1.885-1.432 5.838-1.433h12.638q3.953 0 5.838 1.433 2.107 1.581 2.107 5.292zm-7.945-1.762V21.476q0-2.18-2.07-2.18h-8.5q-2.07 0-2.07 2.18v11.306q0 2.81 2.255 2.809h8.129q2.254 0 2.254-2.809" transform="translate(-27.709 -4.371)" style="fill:#1b1b1b"/>
        <path data-name="패스 11352" d="M157.576 35.37q0 6.726-7.575 6.725h-20.767V12.533H150q7.574 0 7.575 6.725zM147.2 19.258h-10.022v4.583h10.014a2.2 2.2 0 0 0 2.439-2.289c0-1.723-.974-2.294-2.428-2.294m-.011 10.865h-10.014v5.247l10.014-.037a2.339 2.339 0 0 0 2.439-2.624 2.3 2.3 0 0 0-2.439-2.586" transform="translate(-45.073 -4.371)" style="fill:#1b1b1b"/>
        <path data-name="패스 11353" d="M256.371 42.1h-7.944V22.109a2.582 2.582 0 0 0-.924-2.294 4.489 4.489 0 0 0-2.55-.556h-8.979V42.1h-7.944V12.534h20.4a8.332 8.332 0 0 1 5.764 1.884 7.278 7.278 0 0 1 2.18 5.654z" transform="translate(-79.529 -4.371)" style="fill:#1b1b1b"/>
        <path data-name="패스 11354" d="M204.862 13.966q-1.884-1.432-5.838-1.433h-2.094c0 .063.009.123.009.186v6.314c0 .088-.007.175-.013.262h.028q2.07 0 2.07 2.18v11.307q0 2.81-2.254 2.809h-8.129q-2.255 0-2.254-2.809V21.476q0-2.18 2.069-2.18h.029a3.26 3.26 0 0 1-.013-.262v-6.315c0-.063.006-.124.009-.186h-2.094q-3.955 0-5.839 1.433-2.106 1.581-2.106 5.292v15.287a7.1 7.1 0 0 0 2.217 5.533 8.18 8.18 0 0 0 5.728 2.018h12.637a8.182 8.182 0 0 0 5.728-2.018 7.1 7.1 0 0 0 2.217-5.533V19.258q0-3.711-2.107-5.292" transform="translate(-62.235 -4.371)" style="fill:#1b1b1b"/>
        <path data-name="패스 11355" d="M201.493 11.66a1.814 1.814 0 0 0-1.8-1.632H198.3a1.814 1.814 0 0 0-1.8 1.632 1.75 1.75 0 0 0-.019.186v6.314a1.747 1.747 0 0 0 .027.262 1.815 1.815 0 0 0 1.791 1.556h1.392a1.815 1.815 0 0 0 1.791-1.556 1.749 1.749 0 0 0 .027-.262v-6.314a1.75 1.75 0 0 0-.019-.186" transform="translate(-68.528 -3.497)" style="fill:#84b64d"/>
    </g>
</svg>
