<svg xmlns="http://www.w3.org/2000/svg" width="127.937" height="22.163" viewBox="0 0 127.937 22.163">
    <defs>
        <clipPath id="2xo8vl17oa">
            <path data-name="사각형 2905" style="fill:#1e1e1e" d="M0 0h127.937v22.163H0z"/>
        </clipPath>
    </defs>
    <g data-name="그룹 4130">
        <g data-name="그룹 4129" style="clip-path:url(#2xo8vl17oa)">
            <path data-name="패스 11372" d="M23.329 19.794 21.657 8.748l-3.345 11.233c-.649 1.66-1.658 2.172-4.152 2.172H12.4l-2.78-13.4-3.445 11.5c-.779 1.8-1.771 1.907-3.206 1.907H0L8.1 0c3.637 0 5.249.936 5.63 3.478l2.063 9.783L20.139 0c3.867 0 5.327 1.559 5.625 3.447l2.849 18.705h-1.848c-1.208 0-2.939.3-3.436-2.358" style="fill:#7ca74e"/>
            <path data-name="패스 11373" d="M102.994 14.653a5.628 5.628 0 0 0-3.4-.836h-1.226c0 .036.006.072.006.109v3.682c0 .052 0 .1-.008.153h.017q1.207 0 1.207 1.272v6.594q0 1.639-1.314 1.638h-4.743q-1.315 0-1.315-1.638v-6.594q0-1.271 1.207-1.272h.017c0-.051-.008-.1-.008-.153v-3.682c0-.037 0-.072.006-.109h-1.221a5.63 5.63 0 0 0-3.405.836 3.613 3.613 0 0 0-1.228 3.087v8.915a4.143 4.143 0 0 0 1.293 3.227 4.772 4.772 0 0 0 3.341 1.176h7.371a4.773 4.773 0 0 0 3.341-1.176 4.145 4.145 0 0 0 1.293-3.227v-8.916a3.613 3.613 0 0 0-1.229-3.087" transform="translate(-57.409 -9.057)" style="fill:#fff"/>
            <path data-name="패스 11374" d="M110.4 12.006a1.058 1.058 0 0 0-1.049-.952h-.811a1.058 1.058 0 0 0-1.049.952c0 .036-.011.071-.011.109V15.8a1.092 1.092 0 0 0 1.06 1.06h.811a1.095 1.095 0 0 0 1.06-1.06v-3.686a1.026 1.026 0 0 0-.011-.109" transform="translate(-70.448 -7.245)" style="fill:#7ca74e"/>
            <path data-name="패스 11375" d="M159 27.136q0 3.922-4.418 3.922h-12.113V13.817h12.112q4.418 0 4.418 3.922zm-6.049-9.4H147.1v2.673h5.84a1.281 1.281 0 0 0 1.423-1.335c0-1-.568-1.338-1.416-1.338m-.007 6.337h-5.84v3.06l5.84-.022a1.364 1.364 0 0 0 1.423-1.53 1.34 1.34 0 0 0-1.423-1.508" transform="translate(-93.384 -9.057)" style="fill:#fff"/>
            <path data-name="패스 11376" d="M197.04 13.817v3.944l5.948-.021v13.318h4.633V17.746l5.948.015v-3.944z" transform="translate(-129.154 -9.057)" style="fill:#fff"/>
            <path data-name="사각형 2904" transform="translate(86.687 4.761)" style="fill:#fff" d="M0 0h4.543v17.241H0z"/>
            <path data-name="패스 11377" d="m277.078 31.062-5.69-17.245h4.543l4.515 13.332 4.5-13.332h4.543l-5.691 17.245z" transform="translate(-177.887 -9.057)" style="fill:#fff"/>
            <path data-name="패스 11378" d="M330.507 30.962h14.067v-4.24h-9.827v-2.27h8.853v-4.24h-8.848v-2.155h9.827v-4.24h-14.072z" transform="translate(-216.637 -9.057)" style="fill:#fff"/>
        </g>
    </g>
</svg>
