<svg xmlns="http://www.w3.org/2000/svg" width="24" height="24" viewBox="0 0 24 24">
    <path d="M1.128.754A2.571 2.571 0 0 1 2.945 0h9.578a2.571 2.571 0 0 1 1.817.754l5.853 5.853a2.571 2.571 0 0 1 .754 1.817v13A2.571 2.571 0 0 1 18.375 24H2.947a2.571 2.571 0 0 1-2.572-2.571V2.572A2.56 2.56 0 0 1 1.13.754zm8.009 7.007a1.286 1.286 0 0 1 .3 1.795l-2.395 3.353a1.286 1.286 0 0 1-1.954.161l-1.437-1.437a1.286 1.286 0 0 1 1.818-1.817l.363.362 1.512-2.116a1.286 1.286 0 0 1 1.793-.3zm1.629 3.166a1.286 1.286 0 0 1 1.286-1.286h4.286a1.286 1.286 0 0 1 0 2.571h-4.287a1.286 1.286 0 0 1-1.286-1.286zm0 6.8a1.286 1.286 0 0 1 1.286-1.286h4.286a1.286 1.286 0 0 1 0 2.571h-4.287a1.286 1.286 0 0 1-1.286-1.286zm-1.329-1.261a1.286 1.286 0 1 0-2.091-1.495l-1.514 2.117-.363-.363a1.286 1.286 0 0 0-1.817 1.817l1.437 1.437a1.286 1.286 0 0 0 1.954-.161l2.395-3.351z" style="fill:#bed7fe;fill-rule:evenodd" transform="translate(1.339)"/>
</svg>
