<svg xmlns="http://www.w3.org/2000/svg" width="41.341" height="41.341" viewBox="0 0 41.341 41.341">
    <path data-name="패스 6829" d="M13 1.333A11.671 11.671 0 1 1 1.338 13.285V12.586A11.626 11.626 0 0 1 13 1.333zm.012 15.05-.148.008a1.157 1.157 0 0 0 0 2.3L13 18.7l.148-.008a1.157 1.157 0 0 0 0-2.3l-.137-.008zM13 7.122a1.164 1.164 0 0 0-1.159 1.022l-.008.136v4.63l.008.135a1.168 1.168 0 0 0 2.318 0l.008-.135V8.279l-.008-.135A1.164 1.164 0 0 0 13 7.122z" transform="translate(7.667 7.667)" style="fill:#e22a39;opacity:.5"/>
    <path data-name="사각형 809" transform="translate(13.223 7.334)" style="fill:#fff" d="M0 0h8v17H0z"/>
    <path data-name="패스 6828" d="M13.333 1.333a12 12 0 1 1-11.995 12.29V12.904A11.954 11.954 0 0 1 13.333 1.333zm.012 15.475-.152.008a1.189 1.189 0 0 0 0 2.364l.14.008.152-.008a1.189 1.189 0 0 0 0-2.364l-.14-.008zm-.012-9.523a1.2 1.2 0 0 0-1.191 1.051l-.008.139v4.761l.008.139a1.2 1.2 0 0 0 2.383 0l.008-.139V8.475l-.008-.139a1.2 1.2 0 0 0-1.192-1.051z" transform="translate(4.89 4.001)" style="fill:#f14452"/>
</svg>
