<svg xmlns="http://www.w3.org/2000/svg" width="32" height="32" viewBox="0 0 32 32">
    <path d="M18 34A16 16 0 1 0 2 18a16 16 0 0 0 16 16zm-5.764-11.315a1.2 1.2 0 0 1 1.679-.249 6.8 6.8 0 0 0 8.171 0 1.2 1.2 0 1 1 1.429 1.928 9.2 9.2 0 0 1-11.029 0 1.2 1.2 0 0 1-.249-1.679zM24.4 15.6c0 1.325-.716 2.4-1.6 2.4s-1.6-1.075-1.6-2.4.716-2.4 1.6-2.4 1.6 1.075 1.6 2.4zM13.2 18c.884 0 1.6-1.075 1.6-2.4s-.716-2.4-1.6-2.4-1.6 1.075-1.6 2.4.716 2.4 1.6 2.4z" transform="translate(-2 -2)" style="fill:#3fd596;fill-rule:evenodd"/>
</svg>
