<svg xmlns="http://www.w3.org/2000/svg" width="24" height="24" viewBox="0 0 24 24">
    <path data-name="사각형 435" style="fill:none" d="M0 0h24v24H0z"/>
    <path data-name="패스 1703" d="M24 12A12 12 0 1 1 12 0a12 12 0 0 1 12 12" style="fill:#fae100"/>
    <path data-name="패스 1704" d="M80.9 73.5a7.4 7.4 0 1 1-7.4-7.4 7.4 7.4 0 0 1 7.4 7.4" transform="translate(-61.498 -61.499)" style="fill:#371d1e"/>
    <path data-name="패스 1705" d="M136.14 129.131h-4.188v2.16h4.1a1.045 1.045 0 0 1 1.045 1.045v.61a1.045 1.045 0 0 1-1.045 1.045h-1.708v-1.78h-2.4v1.78H130.1v2.16h1.85v2.43h2.4v-2.43h1.792a3.3 3.3 0 0 0 3.3-3.3v-.409a3.3 3.3 0 0 0-3.3-3.3" transform="translate(-122.773 -121.855)" style="fill:#fae100"/>
</svg>
