<svg xmlns="http://www.w3.org/2000/svg" width="24" height="24" viewBox="0 0 24 24">
    <path data-name="사각형 478" style="fill:none" d="M0 0h24v24H0z"/>
    <path data-name="패스 1715" d="M23.108 11.553A11.553 11.553 0 1 1 11.554 0a11.553 11.553 0 0 1 11.554 11.553" transform="translate(.446 .446)" style="fill:#e5e8eb"/>
    <path data-name="패스 1716" d="M18.338 22.7a1.182 1.182 0 0 1-1.182-1.182v-.861a1.182 1.182 0 0 1 2.364 0v.861a1.182 1.182 0 0 1-1.182 1.182" transform="translate(-10.925 -12.46)" style="fill:#4e5968"/>
    <path data-name="패스 1717" d="M45.546 22.7a1.182 1.182 0 0 1-1.182-1.182v-.861a1.182 1.182 0 0 1 2.364 0v.861a1.182 1.182 0 0 1-1.182 1.182" transform="translate(-28.958 -12.46)" style="fill:#4e5968"/>
    <path data-name="패스 1718" d="M30.462 31.56a.838.838 0 0 1-.506-.169l-.345-.26a2 2 0 0 1-.835-1.532 1.967 1.967 0 0 1 .736-1.551l.364-.305a.843.843 0 0 1 1.083 1.292l-.364.3a.31.31 0 0 0-.135.214.352.352 0 0 0 .163.23l.345.26a.843.843 0 0 1-.507 1.517" transform="translate(-18.626 -17.812)" style="fill:#4e5968"/>
    <path data-name="패스 1719" d="M23.142 43.331c-2.654 0-4.958-1.407-5.6-3.421a.843.843 0 1 1 1.606-.515c.418 1.3 2.1 2.25 4 2.25 1.929 0 3.616-.963 4.011-2.291a.843.843 0 1 1 1.616.481c-.613 2.058-2.927 3.5-5.627 3.5" transform="translate(-11.151 -25.239)" style="fill:#4e5968"/>
</svg>
