<svg xmlns="http://www.w3.org/2000/svg" width="32" height="32" viewBox="0 0 32 32">
    <g transform="translate(-363 -499)">
        <ellipse data-name="타원 41" cx="9" cy="3.5" rx="9" ry="3.5" transform="translate(370 519)" style="fill:#3182f6"/>
        <path data-name="사각형 650" transform="translate(369 508)" style="fill:#fff" d="M0 0h20v9H0z"/>
        <path data-name="패스 1741" d="M18 34A16 16 0 1 0 2 18a16 16 0 0 0 16 16zm-5.764-10.315a1.2 1.2 0 0 1 1.679-.249 6.8 6.8 0 0 0 8.171 0 1.2 1.2 0 1 1 1.429 1.928 9.2 9.2 0 0 1-11.029 0 1.2 1.2 0 0 1-.249-1.679zM24.4 15.6c0 1.325-.716 2.4-1.6 2.4s-1.6-1.075-1.6-2.4.716-2.4 1.6-2.4 1.6 1.075 1.6 2.4zM13.2 18c.884 0 1.6-1.075 1.6-2.4s-.716-2.4-1.6-2.4-1.6 1.075-1.6 2.4.716 2.4 1.6 2.4z" transform="translate(361 497)" style="fill-rule:evenodd;fill:#3182f6"/>
        <path data-name="사각형 633" d="M0 0h10a5 5 0 0 1-5 5 5 5 0 0 1-5-5z" transform="translate(374 519)" style="fill:#fff"/>
    </g>
</svg>
