<svg xmlns="http://www.w3.org/2000/svg" width="24" height="24" viewBox="0 0 24 24">
    <path data-name="제외 2" d="M-171.71-2668a5.766 5.766 0 0 1-2.678-.511 1.45 1.45 0 0 1-.626-.669c-.172-.359-.5-1.076-.789-1.84a9.911 9.911 0 0 1-1.634-.945c-.589.1-1.258.178-1.99.237h-.128a1.406 1.406 0 0 1-.765-.213 5.747 5.747 0 0 1-1.78-2.059 5.76 5.76 0 0 1-.9-2.575 1.454 1.454 0 0 1 .266-.877c.38-.555.784-1.1 1.2-1.605a10.016 10.016 0 0 1 0-1.885c-.41-.5-.814-1.041-1.2-1.6a1.465 1.465 0 0 1-.266-.877 5.763 5.763 0 0 1 .9-2.575 5.77 5.77 0 0 1 1.782-2.064 1.4 1.4 0 0 1 .761-.212c.044 0 .088 0 .132.005.4.031 1.181.1 1.99.236a9.82 9.82 0 0 1 1.634-.944c.235-.618.5-1.238.789-1.84a1.452 1.452 0 0 1 .626-.67 5.77 5.77 0 0 1 2.678-.511 5.761 5.761 0 0 1 2.678.511 1.455 1.455 0 0 1 .626.67c.136.283.485 1.028.789 1.84a9.886 9.886 0 0 1 1.633.944c.754-.125 1.5-.2 1.99-.236.043 0 .087-.005.13-.005a1.406 1.406 0 0 1 .763.213 5.746 5.746 0 0 1 1.781 2.064 5.764 5.764 0 0 1 .9 2.575 1.451 1.451 0 0 1-.266.877c-.381.557-.785 1.1-1.2 1.605a10.019 10.019 0 0 1 0 1.885c.417.511.821 1.052 1.2 1.605a1.457 1.457 0 0 1 .266.877 5.772 5.772 0 0 1-.9 2.575 5.772 5.772 0 0 1-1.782 2.064 1.407 1.407 0 0 1-.766.213h-.128a23.84 23.84 0 0 1-1.99-.237 9.9 9.9 0 0 1-1.633.945 24.235 24.235 0 0 1-.789 1.84 1.458 1.458 0 0 1-.626.669 5.775 5.775 0 0 1-2.678.5zm.21-15.945a3.5 3.5 0 0 0-3.5 3.5 3.5 3.5 0 0 0 3.5 3.5 3.5 3.5 0 0 0 3.5-3.5 3.5 3.5 0 0 0-3.5-3.5z" transform="translate(183.71 2692)" style="fill:#bed7fe"/>
</svg>
