<svg xmlns="http://www.w3.org/2000/svg" width="24" height="24" viewBox="0 0 24 24">
    <g data-name="그룹 164">
        <path data-name="패스 1711" d="M23.948 0v23.948H0V0zM12.567 23.208h-.012l-.071.035h-.034l-.071-.036a.022.022 0 0 0-.024.006v.01l-.017.427v.02l.01.013.1.074h.027l.1-.074.012-.016v-.017l-.017-.426a.021.021 0 0 0-.016-.018zm.263-.113h-.014l-.184.093-.01.01v.011l.018.429v.012l.008.008.2.092a.025.025 0 0 0 .029-.008v-.014l-.034-.613a.027.027 0 0 0-.02-.022zm-.713 0a.023.023 0 0 0-.027.006l-.006.014-.034.613a.025.025 0 0 0 .017.024h.015l.2-.093.01-.008v-.011l.018-.429v-.012l-.01-.01-.184-.092z" style="fill:none;fill-rule:evenodd" transform="translate(.026 .001)"/>
        <path data-name="빼기 1" d="M-299.263-3229.052h-14.368a2.4 2.4 0 0 1-2.395-2.4v-17.96a2.4 2.4 0 0 1 2.395-2.4h1.7a5.929 5.929 0 0 0-.5 2.4 2.4 2.4 0 0 0 2.395 2.395h7.185a2.4 2.4 0 0 0 2.395-2.395 5.926 5.926 0 0 0-.5-2.4h1.7a2.4 2.4 0 0 1 2.395 2.4v17.96a2.4 2.4 0 0 1-2.402 2.4zm-7.151-13.948a1.251 1.251 0 0 0-1.25 1.25v7.641a1.251 1.251 0 0 0 1.25 1.25 1.251 1.251 0 0 0 1.25-1.25v-7.641a1.251 1.251 0 0 0-1.25-1.25zm4.5 2.927a1.252 1.252 0 0 0-1.25 1.25v4.713a1.251 1.251 0 0 0 1.25 1.249 1.251 1.251 0 0 0 1.25-1.249v-4.713a1.252 1.252 0 0 0-1.25-1.248zm-9.066 2.875a1.252 1.252 0 0 0-1.25 1.25v1.838a1.251 1.251 0 0 0 1.25 1.249 1.251 1.251 0 0 0 1.25-1.249v-1.838a1.252 1.252 0 0 0-1.25-1.252zm8.125-12.212h-7.185a3.592 3.592 0 0 1 .821-2.285l.095-.11a3.6 3.6 0 0 1 2.677-1.2 3.594 3.594 0 0 1 2.677 1.2 3.554 3.554 0 0 1 .9 2.122l.011.272z" transform="translate(318.447 3253.001)" style="fill:#bed7fe"/>
    </g>
</svg>
