<svg xmlns="http://www.w3.org/2000/svg" width="100" height="24" viewBox="0 0 100 24">
    <defs>
        <clipPath id="pm5veczmta">
            <path data-name="사각형 39" style="fill:none" d="M0 0h59.188v23.783H0z"/>
        </clipPath>
    </defs>
    <g data-name="그룹 4">
        <path data-name="패스 29" d="M70.115 11.114h-5.292a2.939 2.939 0 0 0-2.854 3.011v9.823h2.969v-4.4a.158.158 0 0 1 .157-.159h4.747a.158.158 0 0 1 .157.159v4.4h2.97v-9.823a2.939 2.939 0 0 0-2.854-3.011M70 14.482v1.732a.159.159 0 0 1-.157.159h-4.748a.159.159 0 0 1-.157-.159v-1.732a.159.159 0 0 1 .157-.159h4.747a.159.159 0 0 1 .157.159"/>
        <path data-name="패스 30" d="M82.772 11.114h-6.288a1.737 1.737 0 0 0-1.734 1.736v9.364a1.737 1.737 0 0 0 1.734 1.737h6.288a2.983 2.983 0 0 0 2.978-2.981v-6.875a2.983 2.983 0 0 0-2.978-2.981m-5.045 5.032v-1.715a.156.156 0 0 1 .156-.156h4.729a.156.156 0 0 1 .156.156v1.715a.156.156 0 0 1-.156.156h-4.726a.156.156 0 0 1-.156-.156m0 2.831a.156.156 0 0 1 .156-.156h4.729a.156.156 0 0 1 .156.156v1.715a.156.156 0 0 1-.156.156h-4.729a.156.156 0 0 1-.156-.156z"/>
        <path data-name="패스 31" d="M97.325 11.114h-8.412a1.671 1.671 0 0 0-1.56 1.761v11.072h3.166v-9.366a.153.153 0 0 1 .142-.161h1.532a.153.153 0 0 1 .142.161v9.366h2.747v-9.366a.152.152 0 0 1 .142-.161h1.529a.153.153 0 0 1 .142.161v9.366h3.106V14.14a2.87 2.87 0 0 0-2.676-3.026"/>
    </g>
    <g data-name="그룹 2">
        <g data-name="그룹 1" transform="translate(0 .164)" style="clip-path:url(#pm5veczmta)">
            <path data-name="패스 23" d="M40.252 10.875h-6.325a1.747 1.747 0 0 0-1.744 1.747v9.418a1.747 1.747 0 0 0 1.744 1.747h6.325a3 3 0 0 0 3-3v-6.914a3 3 0 0 0-3-3M35.18 15.94v-1.728a.157.157 0 0 1 .157-.157h4.757a.157.157 0 0 1 .157.157v1.728a.157.157 0 0 1-.157.157h-4.756a.157.157 0 0 1-.157-.157m0 2.847a.157.157 0 0 1 .157-.157h4.757a.157.157 0 0 1 .157.157v1.725a.157.157 0 0 1-.157.157h-4.757a.157.157 0 0 1-.157-.157z"/>
            <path data-name="사각형 36" d="M53.594 10.875h3.227v12.908h-3.227z"/>
            <path data-name="사각형 37" d="M45.276 15.716h6.356v3.227h-6.356z"/>
            <path data-name="패스 24" d="m14.246 43.6-1.021-6.745-2.042 6.86c-.4 1.014-1.013 1.326-2.535 1.326H7.572l-1.7-8.185-2.1 7.021a1.713 1.713 0 0 1-1.957 1.164H0l4.947-13.53c2.221 0 3.205.572 3.438 2.124l1.26 5.974 2.653-8.1c2.362 0 3.254.952 3.435 2.105l1.74 11.422h-1.129c-.738 0-1.795.185-2.1-1.44" transform="translate(0 -21.262)" style="fill:#80af4d"/>
            <path data-name="패스 25" d="M75.077 36.057H73.7a.326.326 0 0 1-.325-.325v-3.06a.326.326 0 0 1 .325-.325h1.373a.326.326 0 0 1 .325.325v3.06a.326.326 0 0 1-.325.325" transform="translate(-49.511 -21.825)" style="fill:#80af4d"/>
            <path data-name="패스 26" d="M27.42 10.875h-.842v3.165h.435a.157.157 0 0 1 .157.157v6.259a.157.157 0 0 1-.157.157h-4.268a.157.157 0 0 1-.157-.157v-6.257a.157.157 0 0 1 .157-.157h.435v-3.167h-.842a3 3 0 0 0-2.991 3v6.9a3 3 0 0 0 2.991 3h5.082a3 3 0 0 0 2.991-3v-6.9a3 3 0 0 0-2.991-3"/>
            <path data-name="패스 27" d="M159.776 0a4.31 4.31 0 0 0 0 8.621v1.007s4.31-1.14 4.31-5.318a4.31 4.31 0 0 0-4.31-4.31" transform="translate(-104.898)" style="fill:#80af4d"/>
            <path data-name="패스 28" d="M162.42 8.286h.984l.937 3.077h-.862l-.35-1.5c-.074-.294-.152-.667-.227-.975h-.019c-.066.313-.142.682-.221.975l-.35 1.5h-.833zm-.265 1.794h1.505v.629h-1.505z" transform="translate(-108.957 -5.591)" style="fill:#fff"/>
            <path data-name="사각형 38" transform="translate(56.103 2.695)" style="fill:#fff" d="M0 0h.813v3.076H0z"/>
        </g>
    </g>
</svg>
