<svg xmlns="http://www.w3.org/2000/svg" width="100" height="100" viewBox="0 0 100 100">
    <defs>
        <clipPath id="hw04xytiga">
            <path data-name="사각형 6621" transform="translate(-.088 .137)" style="fill:none" d="M0 0h100v100H0z"/>
        </clipPath>
    </defs>
    <g data-name="그룹 9046" transform="translate(.088 -.137)" style="clip-path:url(#hw04xytiga)">
        <path data-name="패스 13274" d="M40.872 1.851c-21.607 0-39.122 16.2-39.122 36.186 0 14.763 6.183 21.805 14.65 28.229l.039.019V83.6a1 1 0 0 0 1.59.8l14.833-11.016.32.137a42.46 42.46 0 0 0 7.69.7c21.607 0 39.121-16.2 39.121-36.186S62.478 1.851 40.872 1.851" transform="translate(9.041 6.244)" style="fill:#ffd500"/>
        <path data-name="패스 13275" d="M41.075 0C18.388 0 0 17.008 0 37.992c0 15.5 6.491 22.9 15.381 29.639l.041.02v18.185a1.044 1.044 0 0 0 1.668.837l15.575-11.568.337.144a44.513 44.513 0 0 0 8.074.737c22.685 0 41.074-17.012 41.074-37.994S63.761 0 41.075 0M27.307 47.619a8.581 8.581 0 0 0 8.507-6.132h5.954a14.249 14.249 0 0 1-14.461 11.861 15.1 15.1 0 0 1-15.478-15.4 15.1 15.1 0 0 1 15.478-15.4 14.266 14.266 0 0 1 14.5 12.083h-5.935a8.47 8.47 0 0 0-8.565-6.431c-5.805 0-9.667 4.141-9.667 9.751a9.535 9.535 0 0 0 9.667 9.67m39.24 5.14h-5.458V40.447c0-2.833-1.651-4.358-4.189-4.358-2.835 0-4.653 1.734-4.653 5.246v11.424h-5.459V22.645h5.459v11.327c1.31-1.987 3.427-2.961 6.3-2.961a7.49 7.49 0 0 1 5.71 2.327 8.784 8.784 0 0 1 2.286 6.432z" transform="translate(8.837 6.696)" style="fill:#1a1311"/>
    </g>
</svg>
