<svg xmlns="http://www.w3.org/2000/svg" width="58" height="58" viewBox="0 0 58 58">
    <defs>
        <clipPath id="zgaweggcia">
            <path data-name="사각형 6572" style="fill:none" d="M0 0h58v53.283H0z"/>
        </clipPath>
    </defs>
    <path data-name="사각형 6580" style="fill:transparent" d="M0 0h58v58H0z"/>
    <g data-name="그룹 7890">
        <g data-name="그룹 7875">
            <g data-name="그룹 7874" transform="translate(0 2.358)" style="clip-path:url(#zgaweggcia)">
                <path data-name="패스 13253" d="M29 0C12.984 0 0 10.263 0 22.926c0 8.241 5.5 15.465 13.758 19.506-.607 2.263-2.2 8.2-2.515 9.472-.394 1.577.576 1.557 1.213 1.135.5-.333 7.946-5.4 11.16-7.584a36.586 36.586 0 0 0 5.383.4c16.016 0 29-10.263 29-22.925S45.016 0 29 0" style="fill:#f9e000"/>
                <path data-name="패스 13254" d="M14.927 31.794h2.985s.019 8.2 0 10.109c0 1.395 3.1 1.413 3.1.021l.017-10.024s1 .007 2.97.008a1.462 1.462 0 0 0 0-2.92c-2.091 0-9.078-.057-9.078-.057-1.752 0-1.746 2.862 0 2.862" transform="translate(-6.158 -13.089)" style="fill:#371c1d"/>
            </g>
        </g>
        <g data-name="그룹 7879">
            <g data-name="그룹 7878" transform="translate(0 2.358)" style="clip-path:url(#zgaweggcia)">
                <path data-name="패스 13256" d="m36.96 32.374 1.661 5.2h-3.462zm-1.86-2.438c-.734 1.618-3.387 9.256-4.268 11.283-.637 1.465 2.109 2.659 2.746 1.194l.6-2.089h5.462s-.188.085.537 2c.588 1.549 3.424.475 2.835-1.074-.839-2.215-3.74-10.185-4.269-11.314a2.255 2.255 0 0 0-1.965-.9 1.729 1.729 0 0 0-1.676.9" transform="translate(-13.904 -13.138)" style="fill:#371c1d"/>
            </g>
        </g>
        <g data-name="그룹 7883">
            <g data-name="그룹 7882" transform="translate(0 2.358)" style="clip-path:url(#zgaweggcia)">
                <path data-name="패스 13258" d="M55.057 30.415c.005 2.6.015 10.963.015 10.963s-.239 1.663 1.186 1.663 4.59-.015 5.993-.015 1.395-2.984-.007-2.984-3.964-.015-3.964-.015.012-7.739.008-9.619a1.638 1.638 0 0 0-3.231.008" transform="translate(-24.907 -13.14)" style="fill:#371c1d"/>
            </g>
        </g>
        <g data-name="그룹 7887">
            <g data-name="그룹 7886" transform="translate(0 2.358)" style="clip-path:url(#zgaweggcia)">
                <path data-name="패스 13260" d="M71.41 30.007c.031 1.138-.037 11.433-.036 12.2 0 1.2 3.065 1.2 3.064 0v-4.05l.9-.721 3.935 5.364c.8 1.049 3.3-.847 2.5-1.9L77.6 35.4s2.836-3.068 3.954-4.179c.653-.648-1.367-2.683-2.02-2.033-.632.627-5.075 5.075-5.075 5.075s.04-2.793 0-4.337c-.015-.586-.735-.87-1.47-.87-.787 0-1.593.325-1.577.952" transform="translate(-32.289 -13.144)" style="fill:#371c1d"/>
            </g>
        </g>
    </g>
</svg>
