<svg xmlns="http://www.w3.org/2000/svg" width="33" height="35" viewBox="0 0 33 35">
  <defs>
    <style>
      .cls-1, .cls-2 {
        fill: #ab7200;
      }

      .cls-1 {
        stroke: #ab7200;
      }

      .cls-3, .cls-5 {
        stroke: none;
      }

      .cls-4 {
        fill: none;
      }

      .cls-5 {
        fill: #ab7200;
      }
    </style>
  </defs>
  <g id="img_sec3_arrow" transform="translate(-1184 196) rotate(-90)">
    <g id="사각형_7068" data-name="사각형 7068" class="cls-1" transform="translate(169 1184)">
      <rect class="cls-3" width="19" height="20" rx="2"/>
      <rect class="cls-4" x="0.5" y="0.5" width="18" height="19" rx="1.5"/>
    </g>
    <g id="다각형_2" data-name="다각형 2" class="cls-2" transform="translate(196 1217) rotate(180)">
      <path class="cls-3" d="M 32.63307189941406 17.50000381469727 L 2.366931915283203 17.50000381469727 C 2.059291839599609 17.50000381469727 1.936621904373169 17.26624298095703 1.906351923942566 17.19459342956543 C 1.876081943511963 17.12295341491699 1.793991923332214 16.87204360961914 2.008441925048828 16.65146255493164 L 17.14150238037109 1.086022853851318 C 17.2364616394043 0.98835289478302 17.3637809753418 0.9345628619194031 17.50000190734863 0.9345628619194031 C 17.63622283935547 0.9345628619194031 17.7635326385498 0.9883428812026978 17.85849189758301 1.086012840270996 L 32.99156188964844 16.65146255493164 C 33.20601272583008 16.87204360961914 33.12392044067383 17.12295341491699 33.09365081787109 17.19459342956543 C 33.06338119506836 17.26624298095703 32.94071197509766 17.50000381469727 32.63307189941406 17.50000381469727 Z"/>
      <path class="cls-5" d="M 17.50000190734863 1.434553146362305 L 17.49999237060547 1.434562683105469 L 2.366935729980469 17 C 2.366935729980469 17.00000190734863 2.366935729980469 17.00000190734863 2.366931915283203 17.00000381469727 L 32.63306045532227 17.00000381469727 C 32.63306427001953 17 32.63306427001953 16.99999809265137 32.63307189941406 17.00000381469727 L 17.50103187561035 1.434642791748047 C 17.50093269348145 1.434623718261719 17.50054168701172 1.434553146362305 17.50000190734863 1.434553146362305 M 17.5 0.4345569610595703 C 17.76033020019531 0.4345569610595703 18.02065658569336 0.5355319976806641 18.21699142456055 0.7374820709228516 L 33.35006332397461 16.30292320251465 C 33.96637344360352 16.93683242797852 33.51719284057617 18.00000381469727 32.63307189941406 18.00000381469727 L 2.366931915283203 18.00000381469727 C 1.482803344726562 18.00000381469727 1.03363037109375 16.93683242797852 1.649932861328125 16.30292320251465 L 16.78300285339355 0.7374820709228516 C 16.97934150695801 0.5355319976806641 17.23967170715332 0.4345569610595703 17.5 0.4345569610595703 Z"/>
    </g>
  </g>
</svg>
