<svg id="m_img_main_logo_w" xmlns="http://www.w3.org/2000/svg" xmlns:xlink="http://www.w3.org/1999/xlink" width="90" height="32" viewBox="0 0 90 32">
  <defs>
    <style>
      .cls-1 {
        fill: none;
      }

      .cls-2 {
        clip-path: url(#clip-path);
      }

      .cls-3 {
        fill: #fff;
      }

      .cls-4 {
        fill: rgba(255,255,255,0);
      }
    </style>
    <clipPath id="clip-path">
      <rect id="사각형_7076" data-name="사각형 7076" class="cls-1" width="79.636" height="32"/>
    </clipPath>
  </defs>
  <g id="그룹_9087" data-name="그룹 9087" transform="translate(6.12 0)">
    <g id="그룹_9086" data-name="그룹 9086" class="cls-2" transform="translate(0 0)">
      <path id="패스_13864" data-name="패스 13864" class="cls-3" d="M109.8,33.435h-8.51a2.351,2.351,0,0,0-2.347,2.35V48.453a2.351,2.351,0,0,0,2.347,2.35h8.51a4.037,4.037,0,0,0,4.03-4.034v-9.3a4.037,4.037,0,0,0-4.03-4.034m-6.825,6.811V37.925a.211.211,0,0,1,.211-.211h6.4a.211.211,0,0,1,.211.211v2.321a.211.211,0,0,1-.211.211h-6.4a.211.211,0,0,1-.211-.211m0,3.831a.211.211,0,0,1,.211-.211h6.4a.211.211,0,0,1,.211.211V46.4a.211.211,0,0,1-.211.211h-6.4a.211.211,0,0,1-.211-.211Z" transform="translate(-55.643 -18.803)"/>
      <rect id="사각형_7074" data-name="사각형 7074" class="cls-3" width="4.342" height="17.368" transform="translate(72.11 14.632)"/>
      <rect id="사각형_7075" data-name="사각형 7075" class="cls-3" width="8.552" height="4.342" transform="translate(60.917 21.145)"/>
      <path id="패스_13865" data-name="패스 13865" class="cls-3" d="M19.168,47.774,17.794,38.7l-2.748,9.229c-.533,1.364-1.362,1.784-3.411,1.784H10.188L7.9,38.7,5.073,48.145c-.639,1.48-1.455,1.567-2.634,1.567H0l6.656-18.2c2.988,0,4.312.769,4.626,2.858l1.7,8.038,3.569-10.9c3.178,0,4.378,1.281,4.622,2.832l2.34,15.368H21.991c-.993,0-2.415.249-2.823-1.937" transform="translate(0 -17.721)"/>
      <path id="패스_13866" data-name="패스 13866" class="cls-3" d="M75.663,37.339H73.816a.439.439,0,0,1-.438-.438V32.784a.439.439,0,0,1,.438-.438h1.848a.439.439,0,0,1,.438.438V36.9a.439.439,0,0,1-.438.438" transform="translate(-41.265 -18.19)"/>
      <path id="패스_13867" data-name="패스 13867" class="cls-3" d="M70.343,33.435H69.211V37.7H69.8a.212.212,0,0,1,.211.211V46.33a.212.212,0,0,1-.211.212H64.053a.212.212,0,0,1-.211-.212V37.908a.211.211,0,0,1,.211-.211h.585V33.435H63.505a4.037,4.037,0,0,0-4.024,4.04v9.288a4.037,4.037,0,0,0,4.024,4.04h6.838a4.036,4.036,0,0,0,4.024-4.04V37.475a4.036,4.036,0,0,0-4.024-4.04" transform="translate(-33.45 -18.803)"/>
      <path id="패스_13868" data-name="패스 13868" class="cls-3" d="M161.266,0a5.8,5.8,0,0,0,0,11.6v1.355s5.8-1.534,5.8-7.155a5.8,5.8,0,0,0-5.8-5.8m-.477,7.766-.206-.88h-1.158l-.206.88H158.1l1.264-4.14h1.324l1.261,4.14Zm3.22,0h-1.095V3.627h1.095Z" transform="translate(-87.428 0)"/>
      <path id="패스_13869" data-name="패스 13869" class="cls-3" d="M165.354,10.148h-.026c-.089.421-.191.918-.3,1.312l-.067.286h.761l-.067-.286c-.1-.4-.2-.9-.305-1.312" transform="translate(-92.77 -5.707)"/>
    </g>
  </g>
  <rect id="사각형_7055" data-name="사각형 7055" class="cls-4" width="90" height="32"/>
</svg>
