<svg xmlns="http://www.w3.org/2000/svg" width="134" height="48" viewBox="0 0 134 48">
    <defs>
        <clipPath id="mojm24glga">
            <path data-name="사각형 7054" style="fill:none" d="M0 0h118.306v47.538H0z"/>
        </clipPath>
    </defs>
    <g data-name="그룹 9068" style="clip-path:url(#mojm24glga)" transform="translate(9.091)">
        <path data-name="패스 13846" d="M80.456 21.737H67.814a3.492 3.492 0 0 0-3.486 3.491v18.819a3.492 3.492 0 0 0 3.486 3.491h12.642a6 6 0 0 0 5.987-5.993V27.73a6 6 0 0 0-5.987-5.993M70.318 31.855v-3.453a.314.314 0 0 1 .314-.313h9.508a.314.314 0 0 1 .314.313v3.448a.314.314 0 0 1-.314.313h-9.508a.314.314 0 0 1-.314-.313m0 5.691a.314.314 0 0 1 .314-.313h9.508a.314.314 0 0 1 .314.313v3.448a.314.314 0 0 1-.314.313h-9.508a.314.314 0 0 1-.314-.313z"/>
        <path data-name="사각형 7051" d="M107.125 21.738h6.45v25.801h-6.45z"/>
        <path data-name="사각형 7052" d="M90.497 31.413h12.705v6.45H90.497z"/>
        <path data-name="패스 13847" d="m28.475 55.672-2.041-13.483L22.352 55.9c-.793 2.026-2.024 2.65-5.068 2.65h-2.149l-3.394-16.361-4.205 14.033c-.95 2.2-2.161 2.328-3.913 2.328H0l9.888-27.039c4.439 0 6.407 1.143 6.872 4.246L19.279 47.7l5.3-16.187c4.721 0 6.5 1.9 6.866 4.208l3.479 22.829h-2.255c-1.475 0-3.587.371-4.194-2.878" transform="translate(0 -11.024)" style="fill:#80af4d"/>
        <path data-name="패스 13848" d="M76.773 39.763h-2.745a.652.652 0 0 1-.65-.65V33a.652.652 0 0 1 .65-.65h2.745a.652.652 0 0 1 .65.65v6.117a.652.652 0 0 1-.65.65" transform="translate(-25.672 -11.317)" style="fill:#80af4d"/>
        <path data-name="패스 13849" d="M54.808 21.737h-1.683v6.33h.87a.315.315 0 0 1 .313.314v12.512a.315.315 0 0 1-.313.315h-8.533a.314.314 0 0 1-.313-.315V28.381a.314.314 0 0 1 .313-.314h.869v-6.33h-1.682a6 6 0 0 0-5.978 6v13.8a6 6 0 0 0 5.978 6h10.159a6 6 0 0 0 5.978-6v-13.8a6 6 0 0 0-5.978-6"/>
        <path data-name="패스 13850" d="M164.082 0a8.616 8.616 0 1 0 0 17.231v2.013s8.618-2.279 8.618-10.629A8.615 8.615 0 0 0 164.082 0" transform="translate(-54.391)" style="fill:#80af4d"/>
        <path data-name="패스 13851" d="M163.359 8.286h1.967l1.874 6.15h-1.722l-.7-2.989c-.147-.588-.3-1.334-.453-1.95h-.038c-.132.625-.283 1.363-.441 1.95l-.7 2.989h-1.664zm-.53 3.585h3.008v1.257h-3.008z" transform="translate(-56.495 -2.899)" style="fill:#fff"/>
        <path data-name="사각형 7053" transform="translate(112.139 5.387)" style="fill:#fff" d="M0 0h1.626v6.149H0z"/>
    </g>
    <path data-name="사각형 7055" style="fill:transparent" d="M0 0h134v48H0z"/>
</svg>
