<svg xmlns="http://www.w3.org/2000/svg" width="16" height="16" viewBox="0 0 16 16">
    <circle data-name="타원 24" cx="5" cy="5" r="5" transform="translate(3 4)" style="fill:#3182f6"/>
    <path data-name="패스 6" d="M6.3 17.42a3.031 3.031 0 0 1-1.37-.37 4.346 4.346 0 0 1-1.23-1.03 7.079 7.079 0 0 1-1.25-2.29A8.463 8.463 0 0 1 2 11a7.79 7.79 0 0 1 .63-3.12 7.987 7.987 0 0 1 4.25-4.25A7.79 7.79 0 0 1 10 3a7.79 7.79 0 0 1 3.12.63 7.915 7.915 0 0 1 2.54 1.73 8.26 8.26 0 0 1 1.71 2.58 8.033 8.033 0 0 1 .63 3.18 8.358 8.358 0 0 1-.48 2.84 6.141 6.141 0 0 1-1.38 2.26 4.228 4.228 0 0 1-1.21.9 2.924 2.924 0 0 1-2.01.21 3.518 3.518 0 0 1-.72-.27l-1.12-.56a2.057 2.057 0 0 0-.53-.2 2.551 2.551 0 0 0-1.1 0 2.057 2.057 0 0 0-.53.2l-1.12.56a3.275 3.275 0 0 1-.75.29 2.583 2.583 0 0 1-.75.07zM10 12.4a1.4 1.4 0 0 0 1.4-1.4 1.733 1.733 0 0 0-.03-.32.955.955 0 0 0-.11-.3l1.28-1.64a3.965 3.965 0 0 1 .42.59 2.844 2.844 0 0 1 .28.67.868.868 0 0 0 .23.39.536.536 0 0 0 .39.17.523.523 0 0 0 .48-.27.7.7 0 0 0 .06-.59 4.689 4.689 0 0 0-1.67-2.38A4.4 4.4 0 0 0 10 6.4a4.457 4.457 0 0 0-2.75.91A4.524 4.524 0 0 0 5.6 9.7a.678.678 0 0 0 .07.59.529.529 0 0 0 .47.27.5.5 0 0 0 .38-.17 1.123 1.123 0 0 0 .24-.39 3.369 3.369 0 0 1 1.23-1.74A3.29 3.29 0 0 1 10 7.6a3.368 3.368 0 0 1 .82.1 3.487 3.487 0 0 1 .78.3l-1.28 1.64a1.355 1.355 0 0 0-.16-.03A1.286 1.286 0 0 0 10 9.6a1.4 1.4 0 1 0 0 2.8z" transform="translate(-2 -2)" style="fill:#cddcf9"/>
</svg>
