<svg xmlns="http://www.w3.org/2000/svg" width="16" height="16" viewBox="0 0 16 16">
    <path d="M5.955 1.188a.9.9 0 1 0-1.746.468l.54 2.016A.9.9 0 0 0 6.5 3.2zM.67 4.727a.9.9 0 0 0 .639 1.107l2.016.54a.9.9 0 1 0 .468-1.746l-2.016-.54a.9.9 0 0 0-1.107.639zm1.09 5.724a.9.9 0 0 0 1.278 0l1.476-1.476A.9.9 0 1 0 3.236 7.7L1.76 9.172a.9.9 0 0 0 0 1.278zm8.812-8.812a.9.9 0 0 1 0 1.278L9.1 4.393a.9.9 0 0 1-1.283-1.278l1.476-1.476a.9.9 0 0 1 1.278 0zM9.3 16.153a13.465 13.465 0 0 1-3.088-9.072A.862.862 0 0 1 7 6.3a13.465 13.465 0 0 1 9.069 3.08.762.762 0 0 1-.141 1.344c-.669.293-1.546.6-2.3.848l2.366 2.366a1.511 1.511 0 0 1-2.137 2.137l-2.365-2.366c-.248.756-.556 1.633-.848 2.3a.762.762 0 0 1-1.344.141z" transform="translate(-.536 -.518)" style="fill:#b0b8c1;fill-rule:evenodd"/>
</svg>
