<svg xmlns="http://www.w3.org/2000/svg" width="16" height="16" viewBox="0 0 16 16">
    <path data-name="패스 21" d="M9.192 1.333a7.864 7.864 0 0 1 2.035.266L9.556 3.27a2.357 2.357 0 0 0-.333.421h-.031a5.5 5.5 0 1 0 5.5 5.5V9.16a2.337 2.337 0 0 0 .42-.334l1.671-1.67a7.859 7.859 0 1 1-7.591-5.823m-.326 3.943c0 .669-.033 1.347 0 2.015l-.424.424a1.572 1.572 0 1 0 2.223 2.223l.424-.424c.668.036 1.345 0 2.015 0a3.929 3.929 0 1 1-4.238-4.238M14.3 1.433a.786.786 0 0 1 .485.725V3.6h1.437a.786.786 0 0 1 .556 1.341L14 7.714a.786.786 0 0 1-.556.23h-1.9l-1.431 1.438A.786.786 0 1 1 9 8.27l1.437-1.436v-1.9a.786.786 0 0 1 .23-.556L13.446 1.6a.786.786 0 0 1 .857-.171" transform="translate(-1.192 -1.192)" style="fill:#b0b8c1"/>
</svg>
