<svg xmlns="http://www.w3.org/2000/svg" width="16" height="16" viewBox="0 0 16 16">
    <path d="M8.573 1.841a3.846 3.846 0 0 1 1.785-.341 3.852 3.852 0 0 1 1.786.341.963.963 0 0 1 .417.447c.1.215.329.7.526 1.226a6.572 6.572 0 0 1 1.089.63 16.4 16.4 0 0 1 1.327-.158.967.967 0 0 1 .6.139A3.839 3.839 0 0 1 17.286 5.5a3.847 3.847 0 0 1 .6 1.717.964.964 0 0 1-.178.585q-.377.552-.8 1.07a6.662 6.662 0 0 1 0 1.257q.422.518.8 1.07a.963.963 0 0 1 .178.585 3.854 3.854 0 0 1-.6 1.717 3.854 3.854 0 0 1-1.186 1.375.965.965 0 0 1-.6.138q-.666-.051-1.327-.158a6.57 6.57 0 0 1-1.089.63q-.237.624-.526 1.226a.965.965 0 0 1-.417.447 3.857 3.857 0 0 1-1.786.341 3.852 3.852 0 0 1-1.786-.341.963.963 0 0 1-.417-.447c-.1-.215-.329-.7-.526-1.226a6.571 6.571 0 0 1-1.089-.63c-.555.092-1.089.139-1.327.158a.965.965 0 0 1-.6-.139A3.839 3.839 0 0 1 3.43 13.5a3.849 3.849 0 0 1-.6-1.717.968.968 0 0 1 .178-.585q.377-.552.8-1.07a6.659 6.659 0 0 1 0-1.257q-.422-.518-.8-1.07a.967.967 0 0 1-.178-.585 3.856 3.856 0 0 1 .6-1.717 3.851 3.851 0 0 1 1.187-1.375.965.965 0 0 1 .6-.138c.238.018.772.065 1.326.158a6.571 6.571 0 0 1 1.089-.63q.237-.624.526-1.226a.965.965 0 0 1 .417-.447zM13.2 9.5a2.844 2.844 0 1 1-2.844-2.844A2.844 2.844 0 0 1 13.2 9.5z" transform="translate(-2.358 -1.5)" style="fill:#b0b8c1;fill-rule:evenodd"/>
</svg>
