<svg xmlns="http://www.w3.org/2000/svg" width="16" height="16" viewBox="0 0 16 16">
    <path data-name="패스 7" d="M4.3 9.394H1.394a.687.687 0 0 0-.727.727v5.818a.687.687 0 0 0 .727.727H4.3a.687.687 0 0 0 .727-.727v-5.818a.687.687 0 0 0-.727-.727zm11.639-2.909H13.03a.687.687 0 0 0-.727.727v8.727a.687.687 0 0 0 .727.727h2.909a.687.687 0 0 0 .727-.727V7.212a.687.687 0 0 0-.727-.727zM10.121.667H7.212a.687.687 0 0 0-.727.727v14.545a.687.687 0 0 0 .727.727h2.909a.687.687 0 0 0 .727-.727V1.394a.687.687 0 0 0-.727-.727z" transform="translate(-.667 -.667)" style="fill:#b0b8c1"/>
</svg>
