<svg xmlns="http://www.w3.org/2000/svg" width="16" height="16" viewBox="0 0 16 16">
    <ellipse data-name="타원 25" cx="6" cy="5.5" rx="6" ry="5.5" transform="translate(2 2)" style="fill:#3182f6"/>
    <path d="M1.5 9.136a7.633 7.633 0 1 1 3.824 6.618 23.5 23.5 0 0 1-2.719.831.782.782 0 0 1-.952-.92 18.368 18.368 0 0 1 .817-2.8 7.6 7.6 0 0 1-.97-3.729zm9.784 1.664a.679.679 0 1 1 1.135.745 3.885 3.885 0 0 1-3.283 1.664 3.885 3.885 0 0 1-3.283-1.664.679.679 0 1 1 1.136-.745 2.531 2.531 0 0 0 2.148 1.051 2.531 2.531 0 0 0 2.147-1.051zM6.761 6.082a.679.679 0 0 1 .679.679v.679a.679.679 0 0 1-1.358 0v-.679a.679.679 0 0 1 .679-.679zm4.073.679a.679.679 0 1 1 1.358 0v.679a.679.679 0 1 1-1.358 0z" transform="translate(-1.136 -1.136)" style="fill:#cddcf9;fill-rule:evenodd"/>
</svg>
