<svg xmlns="http://www.w3.org/2000/svg" width="16" height="16" viewBox="0 0 16 16">
    <path data-name="사각형 657" transform="translate(3 5)" style="fill:#3182f6" d="M0 0h10v8H0z"/>
    <path data-name="패스 1749" d="M5.4 2.133a3.986 3.986 0 0 0-.333 1.6 1.6 1.6 0 0 0 1.6 1.6h4.8a1.6 1.6 0 0 0 1.6-1.6 3.98 3.98 0 0 0-.333-1.6h1.133a1.6 1.6 0 0 1 1.6 1.6v12a1.6 1.6 0 0 1-1.6 1.6h-9.6a1.6 1.6 0 0 1-1.6-1.6v-12a1.6 1.6 0 0 1 1.6-1.6H5.4zm3.667 8.8h-2.4a.8.8 0 1 0 0 1.6h2.4a.8.8 0 1 0 0-1.6zm2.4-3.2h-4.8a.8.8 0 0 0-.094 1.594l.094.006h4.8a.8.8 0 1 0 0-1.6zm-2.4-6.4a2.4 2.4 0 0 1 2.393 2.218l.007.182h-4.8a2.388 2.388 0 0 1 .548-1.526l.063-.074a2.4 2.4 0 0 1 1.789-.8z" transform="translate(-1.067 -1.333)" style="fill-rule:evenodd;fill:#cddcf9"/>
    <path data-name="패스 1750" d="M9.067 1.333a2.4 2.4 0 0 1 2.393 2.218l.007.182h-4.8a2.388 2.388 0 0 1 .548-1.526l.063-.074a2.4 2.4 0 0 1 1.789-.8z" transform="translate(-1.067 -1.333)" style="fill-rule:evenodd;fill:#3182f6"/>
</svg>
