<svg xmlns="http://www.w3.org/2000/svg" width="16" height="16" viewBox="0 0 16 16">
    <path d="M4.1 9.521a5.4 5.4 0 1 1 10.2 2.473.845.845 0 0 0 .018.931 2.534 2.534 0 0 0 1.274.824.835.835 0 0 0 .956-.438 8 8 0 1 0-14.1 0 .835.835 0 0 0 .956.438 2.534 2.534 0 0 0 1.274-.824.845.845 0 0 0 .018-.931A5.428 5.428 0 0 1 4.1 9.521zm8.75-.021a3.348 3.348 0 0 1-1.644 2.883 5 5 0 0 1 2.944 3.809.924.924 0 0 1-.813 1.132A30.672 30.672 0 0 1 9.5 17.5a30.672 30.672 0 0 1-3.837-.173.924.924 0 0 1-.813-1.132 5 5 0 0 1 2.944-3.809A3.35 3.35 0 1 1 12.85 9.5z" transform="translate(-1.5 -1.5)" style="fill-rule:evenodd;fill:#cddcf9"/>
    <path data-name="Union" d="M4.1 9.521a5.4 5.4 0 1 1 10.2 2.473.845.845 0 0 0 .018.931 2.534 2.534 0 0 0 1.274.824.835.835 0 0 0 .956-.438 8 8 0 1 0-14.1 0 .835.835 0 0 0 .956.438 2.534 2.534 0 0 0 1.274-.824.845.845 0 0 0 .018-.931A5.428 5.428 0 0 1 4.1 9.521z" transform="translate(-1.5 -1.5)" style="fill:#3182f6;fill-rule:evenodd"/>
</svg>
