<svg xmlns="http://www.w3.org/2000/svg" width="16" height="16" viewBox="0 0 16 16">
    <path data-name="제외 1" d="M8-37a8.009 8.009 0 0 1-8-8 8.009 8.009 0 0 1 8-8 8.009 8.009 0 0 1 8 8 8.009 8.009 0 0 1-8 8zM6.258-48.65a.947.947 0 0 0-.958.958v5.787a.947.947 0 0 0 .958.957.947.947 0 0 0 .957-.957v-1.308h1.076c1.894 0 3.118-1.071 3.118-2.729v-.021a2.655 2.655 0 0 0-2.96-2.687zm2.086 3.7h-1.13v-1.943h1.1c.433 0 1.16.125 1.16.961v.021c-.002.584-.444.961-1.13.961z" transform="translate(0 53)" style="fill:#b0b8c1"/>
</svg>
