<svg xmlns="http://www.w3.org/2000/svg" width="16" height="16" viewBox="0 0 16 16">
    <path d="M1.143 1.786A1.143 1.143 0 0 0 0 2.929v10.285a1.714 1.714 0 0 0 1.714 1.714H14a2 2 0 0 0 2-2V5.5a.571.571 0 0 0-.571-.571h-1.122v7.381a.714.714 0 1 1-1.429 0V2.929a1.143 1.143 0 0 0-1.143-1.143H1.143zM3.185 4.97a.571.571 0 0 1 .571-.57H8.9a.571.571 0 0 1 .571.571v2.856A.571.571 0 0 1 8.9 8.4H3.756a.571.571 0 0 1-.571-.571V4.97zm-.143 6.53a.714.714 0 0 1 .714-.714H8.9a.714.714 0 1 1 0 1.429H3.756a.714.714 0 0 1-.714-.715z" transform="translate(0 -.357)" style="fill:#b0b8c1;fill-rule:evenodd"/>
</svg>
