<svg xmlns="http://www.w3.org/2000/svg" width="16" height="16" viewBox="0 0 16 16">
    <path data-name="패스 8" d="M6.147 7.805v9.122H2.829A.829.829 0 0 1 2 16.1V7.805h4.147zm10.781 0V16.1a.829.829 0 0 1-.829.829H7.805V7.805zM16.1 2a.829.829 0 0 1 .829.829v3.318H2V2.829A.829.829 0 0 1 2.829 2H16.1z" transform="translate(-1.464 -1.464)" style="fill:#cddcf9"/>
    <path data-name="패스 46" d="M16.1 2a.829.829 0 0 1 .829.829v3.318H2V2.829A.829.829 0 0 1 2.829 2H16.1z" transform="translate(-1.464 -1.464)" style="fill:#3182f6"/>
</svg>
