<svg xmlns="http://www.w3.org/2000/svg" width="29.75" height="28" viewBox="0 0 29.75 28">
    <g data-name="그룹 1632">
        <g data-name="그룹 1006" transform="translate(2 3)">
            <circle data-name="타원 43" cx="3.966" cy="3.966" r="3.966" transform="translate(3.966)" style="stroke:#a5adb5;stroke-width:1.5px;fill:#a5adb5;stroke-linecap:round;stroke-linejoin:round"/>
            <path data-name="패스 337" d="M16.365 17.7H.5v-1.767a7.933 7.933 0 0 1 15.865 0z" transform="translate(-.5 3.458)" style="stroke:#a5adb5;stroke-width:1.5px;fill:#a5adb5;stroke-linecap:round;stroke-linejoin:round"/>
        </g>
        <g data-name="그룹 1005">
            <g data-name="패스 336" style="fill:#a5adb5;stroke-linecap:round;stroke-linejoin:round">
                <path d="m4.898 20.471.277-1.963.529-3.754.07-.496.353-.355L14.412 5.6l1.061-1.062 1.062 1.061 3.243 3.244 1.061 1.06-1.06 1.061-8.304 8.303-.357.358-.5.068-3.756.511-1.964.267z" style="stroke:none" transform="translate(8.032 6.282)"/>
                <path d="M15.474 6.66 7.19 14.963l-.529 3.755 3.755-.512 8.303-8.302-3.244-3.244m0-3a3 3 0 0 1 2.121.879l3.244 3.243a3 3 0 0 1 0 4.243l-8.303 8.303a3 3 0 0 1-1.716.851l-3.755.511a3 3 0 0 1-3.376-3.39l.53-3.756a3 3 0 0 1 .846-1.7l8.286-8.303a2.997 2.997 0 0 1 2.123-.881z" style="fill:#fff;stroke:none" transform="translate(8.032 6.282)"/>
            </g>
        </g>
    </g>
</svg>
