<svg xmlns="http://www.w3.org/2000/svg" width="18.446" height="13.191" viewBox="0 0 18.446 13.191">
    <defs>
        <clipPath id="l3b6nttqra">
            <path data-name="사각형 3396" style="fill:none" d="M0 0h18.446v13.191H0z"/>
        </clipPath>
    </defs>
    <g data-name="그룹 5518">
        <g data-name="그룹 5517" style="clip-path:url(#l3b6nttqra)">
            <path data-name="패스 11734" d="m6.558 5.565-.47-3.105-.94 3.158c-.183.467-.466.61-1.167.61h-.5L2.7 2.459l-.964 3.232a.789.789 0 0 1-.9.536H0L2.277 0C3.3 0 3.753.263 3.86.978l.58 2.75L5.662 0c1.087 0 1.5.438 1.581.969l.8 5.259h-.52c-.34 0-.826.085-.966-.663" style="fill:#84b64d"/>
            <path data-name="패스 11735" d="M55.051 11.556a1.165 1.165 0 0 1-.364.907 1.341 1.341 0 0 1-.939.331h-2.071a1.341 1.341 0 0 1-.939-.331 1.165 1.165 0 0 1-.364-.907V9.05a1.016 1.016 0 0 1 .345-.868 1.583 1.583 0 0 1 .957-.235h2.072a1.583 1.583 0 0 1 .957.235 1.015 1.015 0 0 1 .345.868zm-1.3-.289V9.413q0-.357-.339-.357h-1.396q-.34 0-.339.357v1.854q0 .461.37.461h1.333q.369 0 .369-.461" transform="translate(-41.891 -6.609)" style="fill:#1b1b1b"/>
            <path data-name="패스 11736" d="M86.587 11.691q0 1.1-1.242 1.1h-3.4V7.947h3.4q1.242 0 1.242 1.1zm-1.7-2.642h-1.644V9.8h1.642a.36.36 0 0 0 .4-.375c0-.283-.16-.376-.4-.376m0 1.781h-1.642v.86l1.642-.006a.383.383 0 0 0 .4-.43.377.377 0 0 0-.4-.424" transform="translate(-68.141 -6.609)" style="fill:#1b1b1b"/>
            <path data-name="패스 11737" d="M61.337 54.394h-1.3v-3.277a.424.424 0 0 0-.151-.376.737.737 0 0 0-.418-.091h-1.475v3.744h-1.3v-4.847h3.344a1.366 1.366 0 0 1 .945.309 1.193 1.193 0 0 1 .358.927z" transform="translate(-47.143 -41.203)" style="fill:#1b1b1b"/>
            <path data-name="패스 11738" d="M29.582 49.782a1.582 1.582 0 0 0-.957-.235h-.343V50.655q.339 0 .339.358v1.854q0 .461-.37.461h-1.329q-.37 0-.369-.461v-1.854q0-.357.339-.358V49.547h-.343a1.582 1.582 0 0 0-.957.235 1.015 1.015 0 0 0-.345.868v2.506a1.165 1.165 0 0 0 .363.907 1.341 1.341 0 0 0 .939.331h2.072a1.341 1.341 0 0 0 .939-.331 1.165 1.165 0 0 0 .364-.907V50.65a1.016 1.016 0 0 0-.345-.868" transform="translate(-20.998 -41.203)" style="fill:#1b1b1b"/>
            <path data-name="패스 11739" d="M37.511 48.226a.3.3 0 0 0-.295-.268h-.228a.3.3 0 0 0-.295.268.259.259 0 0 0 0 .03v1.035a.3.3 0 0 0 0 .043.3.3 0 0 0 .294.255h.228a.3.3 0 0 0 .294-.255.3.3 0 0 0 0-.043v-1.035a.3.3 0 0 0 0-.03" transform="translate(-30.511 -39.882)" style="fill:#84b64d"/>
        </g>
    </g>
</svg>
