<svg xmlns="http://www.w3.org/2000/svg" width="24" height="8.896" viewBox="0 0 24 8.896">
    <defs>
        <clipPath id="7lyycxmmka">
            <path data-name="사각형 3400" style="fill:none" d="M0 0h24v8.896H0z"/>
        </clipPath>
    </defs>
    <g data-name="그룹 5521">
        <path data-name="사각형 3397" transform="translate(19.173 5.931)" style="fill:#19191a" d="M0 0h1.668v1.041H0z"/>
        <g data-name="그룹 5520">
            <g data-name="그룹 5519" style="clip-path:url(#7lyycxmmka)">
                <path data-name="패스 11740" d="M71.44 32.67a1.566 1.566 0 0 0-.948-.233h-.34V33.535q.336 0 .336.354v1.835q0 .456-.366.456h-1.32q-.366 0-.366-.456v-1.835q0-.354.336-.354V32.437h-.34a1.566 1.566 0 0 0-.948.233 1 1 0 0 0-.342.859v2.481a1.153 1.153 0 0 0 .36.9 1.328 1.328 0 0 0 .93.327h2.051a1.328 1.328 0 0 0 .93-.327 1.153 1.153 0 0 0 .36-.9v-2.481a1 1 0 0 0-.342-.859" transform="translate(-58.762 -28.385)" style="fill:#19191a"/>
                <path data-name="패스 11741" d="M83.234 30.58a.294.294 0 0 0-.292-.265h-.226a.294.294 0 0 0-.292.265.3.3 0 0 0 0 .03v1.025a.282.282 0 0 0 0 .042.3.3 0 0 0 .291.253h.226a.3.3 0 0 0 .291-.253.3.3 0 0 0 0-.042V30.61a.3.3 0 0 0 0-.03" transform="translate(-72.124 -26.528)" style="fill:#7ca74e"/>
                <path data-name="패스 11742" d="m6.493 27.339-.465-3.075-.928 3.127c-.181.462-.461.6-1.156.6h-.49L2.68 24.26l-.959 3.2a.781.781 0 0 1-.895.54H0l2.255-6.17c1.012 0 1.461.261 1.567.968l.578 2.723 1.205-3.691c1.076 0 1.483.434 1.566.959L7.964 28H7.45c-.336 0-.818.084-.956-.656" transform="translate(0 -19.103)" style="fill:#7ca74e"/>
                <path data-name="패스 11743" d="M113.964 36.143q0 1.092-1.23 1.092h-3.371v-4.8h3.371q1.23 0 1.23 1.092zm-1.684-2.615h-1.627v.744h1.626a.356.356 0 0 0 .4-.372c0-.28-.158-.372-.394-.372m0 1.764h-1.626v.852l1.626-.006a.38.38 0 0 0 .4-.426.373.373 0 0 0-.4-.42" transform="translate(-95.701 -28.384)" style="fill:#19191a"/>
                <path data-name="사각형 3398" transform="translate(21.75 4.065)" style="fill:#19191a" d="M0 0h1.267v4.772H0z"/>
                <path data-name="패스 11744" d="M167.853 0a1.616 1.616 0 0 0 0 3.233v.377a2.179 2.179 0 0 0 1.616-1.994A1.616 1.616 0 0 0 167.853 0" transform="translate(-145.47)" style="fill:#7ca74e"/>
                <path data-name="패스 11745" d="M172.472 8.091h.369l.351 1.154h-.323l-.131-.561c-.028-.11-.057-.25-.085-.366h-.007c-.025.117-.053.256-.082.366l-.131.561h-.312zm-.1.673h.564V9h-.564z" transform="translate(-150.619 -7.08)" style="fill:#fff"/>
                <path data-name="사각형 3399" transform="translate(22.844 1.011)" style="fill:#fff" d="M0 0h.305v1.154H0z"/>
            </g>
        </g>
    </g>
</svg>
