<svg xmlns="http://www.w3.org/2000/svg" width="15.525" height="19.295" viewBox="0 0 15.525 19.295">
    <g data-name="그룹 4136">
        <path data-name="패스 11383" d="M12.881 14h-.636v-1.13a.555.555 0 0 0 .034-.187 5.034 5.034 0 0 0-10.068.023.556.556 0 0 0 .034.187V14h-.6A1.645 1.645 0 0 0 0 15.64v8.678a1.645 1.645 0 0 0 1.643 1.644h11.238a1.645 1.645 0 0 0 1.643-1.644V15.64A1.645 1.645 0 0 0 12.881 14m-9.507 0v-1.317a3.872 3.872 0 1 1 7.743.023V14zM13.4 24.318a.516.516 0 0 1-.515.515H1.643a.516.516 0 0 1-.515-.515v-7.33H13.4zm0-8.458H1.128v-.22a.516.516 0 0 1 .515-.515h1.084a.421.421 0 0 0 .166 0h9.989a.516.516 0 0 1 .515.515z" transform="translate(.5 -7.166)" style="fill:#84b64d;stroke:#84b64d"/>
        <path data-name="패스 11384" d="M39.868 82.085V83a.283.283 0 0 0 .567 0v-.918a.944.944 0 1 0-.567 0" transform="translate(-32.39 -68.045)" style="fill:#84b64d;stroke:#84b64d"/>
    </g>
</svg>
