<svg xmlns="http://www.w3.org/2000/svg" width="22" height="22" viewBox="0 0 22 22">
    <path data-name="패스 215" d="M20.287 2.163 18.533.409a1.405 1.405 0 0 0-1.983 0l-1.272 1.272a.351.351 0 0 0 0 .5l3.241 3.241a.351.351 0 0 0 .5 0l1.272-1.272a1.405 1.405 0 0 0 0-1.983zm-4.926 8.53-1.438 1.437a.442.442 0 0 0-.126.305v3.658H2.3V4.6h8.257a.442.442 0 0 0 .305-.126L12.3 3.032a.431.431 0 0 0-.305-.737H1.725A1.725 1.725 0 0 0 0 4.02v12.648a1.725 1.725 0 0 0 1.725 1.725h12.647a1.725 1.725 0 0 0 1.728-1.725V11a.431.431 0 0 0-.737-.305z" transform="translate(.6 1.8)" style="opacity:.4;fill:#fff"/>
    <path data-name="패스 216" d="M171.872 83.6a.354.354 0 0 1 0 .5l-7.8 7.87-3.316.371a.692.692 0 0 1-.569-.2.7.7 0 0 1-.2-.574l.368-3.344 7.8-7.87a.347.347 0 0 1 .493 0z" transform="translate(-153.549 -75.583)" style="fill:#fff"/>
</svg>
