<svg xmlns="http://www.w3.org/2000/svg" width="22" height="22" viewBox="0 0 22 22">
    <path data-name="패스 217" d="m16.343 2.266-3.052 2.443a1.558 1.558 0 0 1 .022.227 1.537 1.537 0 1 1-3.074 0 1.519 1.519 0 0 1 .023-.227L7.209 2.266a1.445 1.445 0 0 1-.95.051l-3.25 3.25a1.534 1.534 0 1 1-1.48-1.144 1.533 1.533 0 0 1 .393.057l3.25-3.25a1.533 1.533 0 0 1-.057-.393 1.537 1.537 0 1 1 3.074 0 1.519 1.519 0 0 1-.023.227l3.052 2.442a1.489 1.489 0 0 1 1.113 0l3.053-2.442a1.559 1.559 0 0 1-.023-.227 1.549 1.549 0 1 1 .981 1.429z" transform="translate(1.809 3.523)" style="opacity:.4;fill:#fff"/>
    <path data-name="패스 218" d="M12.809 196.1H10.76a.512.512 0 0 0-.512.512v5.124a.512.512 0 0 0 .512.512h2.049a.512.512 0 0 0 .512-.512v-5.124a.512.512 0 0 0-.512-.512zm5.124-4.1h-2.05a.512.512 0 0 0-.512.512v9.222a.512.512 0 0 0 .512.512h2.049a.512.512 0 0 0 .512-.512v-9.222a.512.512 0 0 0-.512-.512zm-10.248 0H5.636a.512.512 0 0 0-.512.512v9.222a.512.512 0 0 0 .512.512h2.049a.512.512 0 0 0 .512-.512v-9.222a.512.512 0 0 0-.512-.512zm-5.124 5.124H.512a.512.512 0 0 0-.512.512v4.1a.512.512 0 0 0 .512.512h2.05a.512.512 0 0 0 .512-.512v-4.1a.512.512 0 0 0-.512-.512z" transform="translate(1.8 -183.029)" style="fill:#fff"/>
</svg>
